<svg width="68" height="40" viewBox="0 0 68 40" fill="none" xmlns="http://www.w3.org/2000/svg">
<g clip-path="url(#clip0)">
<path fill-rule="evenodd" clip-rule="evenodd" d="M66.9633 35.2577C66.9735 35.4108 66.9346 35.5631 66.8522 35.6935C66.7698 35.8238 66.6479 35.9256 66.5036 35.9846C66.2747 36.0977 66.0221 36.1569 65.7658 36.1577H64.8653C64.8242 36.1635 64.7824 36.1597 64.7431 36.1467C64.7038 36.1337 64.6682 36.1118 64.6391 36.0828C64.61 36.0538 64.5882 36.0185 64.5756 35.9797C64.563 35.9409 64.5599 35.8997 64.5665 35.8595V35.5324C64.561 35.2172 64.6721 34.9108 64.8794 34.6701C64.9887 34.5459 65.1248 34.4473 65.2778 34.3813C65.4309 34.3154 65.597 34.2838 65.764 34.2889C66.0634 34.2779 66.3589 34.3591 66.609 34.5212C66.7237 34.6069 66.8157 34.7185 66.8771 34.8466C66.9385 34.9747 66.9674 35.1154 66.9616 35.2568L66.9633 35.2577ZM68.0005 38.2818C68.0155 37.9421 67.9525 37.6034 67.8162 37.2909C67.7124 37.0838 67.5596 36.9042 67.3706 36.7669C67.2584 36.6677 67.2584 36.5729 67.3706 36.4826C67.5218 36.3782 67.6536 36.2491 67.7602 36.101C67.9297 35.8526 68.0139 35.5576 68.0005 35.259C68.0113 34.9918 67.9611 34.7257 67.8537 34.4801C67.7462 34.2344 67.5842 34.0155 67.3794 33.8393C66.9169 33.4922 66.3457 33.3141 65.764 33.3356C65.4635 33.3285 65.1648 33.3831 64.887 33.4958C64.6093 33.6086 64.3585 33.777 64.1508 33.9903C63.9476 34.1942 63.7879 34.4357 63.6809 34.7009C63.5739 34.966 63.5218 35.2494 63.5276 35.5346V39.4397C63.5217 39.4792 63.5254 39.5196 63.5382 39.5575C63.5511 39.5955 63.5727 39.6299 63.6015 39.6582C63.6303 39.6865 63.6655 39.7078 63.7041 39.7204C63.7428 39.733 63.7839 39.7366 63.8242 39.7308H64.2703C64.3105 39.7365 64.3516 39.7329 64.3902 39.7202C64.4288 39.7076 64.4638 39.6863 64.4926 39.658C64.5213 39.6298 64.543 39.5953 64.5558 39.5574C64.5686 39.5195 64.5723 39.4792 64.5665 39.4397V37.3454C64.5602 37.3052 64.5635 37.264 64.5762 37.2253C64.5889 37.1865 64.6105 37.1512 64.6395 37.122C64.6685 37.0929 64.704 37.0708 64.7432 37.0575C64.7824 37.0441 64.8242 37.0399 64.8653 37.0451H65.764C65.9308 37.0403 66.0967 37.0719 66.2497 37.1375C66.4026 37.2031 66.5389 37.3012 66.6486 37.4246C66.8551 37.664 66.9662 37.9686 66.9616 38.2822V39.4405C66.9557 39.48 66.9594 39.5204 66.9722 39.5583C66.985 39.5962 67.0067 39.6306 67.0354 39.6589C67.0642 39.6872 67.0992 39.7084 67.1378 39.7211C67.1764 39.7337 67.2175 39.7374 67.2578 39.7317H67.7038C67.7441 39.7374 67.7852 39.7337 67.8238 39.7211C67.8624 39.7084 67.8974 39.6872 67.9262 39.6589C67.9549 39.6306 67.9765 39.5962 67.9894 39.5583C68.0022 39.5204 68.0058 39.48 68 39.4405L68.0005 38.2818ZM51.016 35.8587C51.0226 35.8989 51.0194 35.94 51.0068 35.9788C50.9942 36.0176 50.9725 36.0529 50.9434 36.0819C50.9143 36.1109 50.8787 36.1328 50.8394 36.1459C50.8001 36.1589 50.7582 36.1626 50.7171 36.1568H48.9197C48.8787 36.1626 48.8368 36.1589 48.7975 36.1459C48.7582 36.1328 48.7226 36.1109 48.6935 36.0819C48.6644 36.0529 48.6427 36.0176 48.6301 35.9788C48.6174 35.94 48.6143 35.8989 48.6209 35.8587V35.5316C48.6155 35.2164 48.7266 34.91 48.9338 34.6692C49.0464 34.549 49.1832 34.453 49.3355 34.3874C49.4878 34.3217 49.6523 34.2878 49.8187 34.2878C49.985 34.2878 50.1495 34.3217 50.3018 34.3874C50.4541 34.453 50.5909 34.549 50.7035 34.6692C50.9108 34.9099 51.022 35.2164 51.0164 35.5316L51.016 35.8587ZM52.0549 35.5337C52.0587 34.9618 51.8409 34.4097 51.4457 33.9894C51.2374 33.7731 50.9846 33.6028 50.704 33.4899C50.4234 33.3771 50.1215 33.3242 49.8184 33.3348C49.518 33.3276 49.2193 33.3821 48.9416 33.4948C48.6639 33.6076 48.4132 33.776 48.2057 33.9894C48.0025 34.1933 47.8427 34.4348 47.7357 34.7C47.6287 34.9651 47.5766 35.2486 47.5824 35.5337V39.4388C47.5766 39.4784 47.5802 39.5187 47.5931 39.5567C47.6059 39.5946 47.6276 39.6291 47.6564 39.6574C47.6852 39.6856 47.7203 39.7069 47.759 39.7195C47.7976 39.7321 47.8388 39.7357 47.8791 39.73H48.3247C48.365 39.7356 48.406 39.732 48.4446 39.7194C48.4832 39.7067 48.5183 39.6854 48.547 39.6572C48.5758 39.6289 48.5974 39.5945 48.6102 39.5565C48.623 39.5186 48.6267 39.4783 48.6209 39.4388V37.3454C48.6146 37.3052 48.6179 37.264 48.6306 37.2253C48.6433 37.1865 48.665 37.1512 48.6939 37.122C48.7229 37.0929 48.7584 37.0708 48.7976 37.0575C48.8368 37.0441 48.8786 37.0399 48.9197 37.0451H50.7171C50.7583 37.0399 50.8001 37.0441 50.8393 37.0575C50.8785 37.0708 50.9139 37.0929 50.9429 37.122C50.9719 37.1512 50.9936 37.1865 51.0063 37.2253C51.0189 37.264 51.0223 37.3052 51.016 37.3454V39.4401C51.0102 39.4797 51.0138 39.52 51.0266 39.558C51.0395 39.5959 51.0612 39.6304 51.09 39.6587C51.1188 39.6869 51.1539 39.7082 51.1926 39.7208C51.2312 39.7334 51.2723 39.737 51.3126 39.7313H51.7569C51.7972 39.737 51.8383 39.7334 51.877 39.7208C51.9156 39.7082 51.9508 39.6869 51.9796 39.6587C52.0084 39.6304 52.0301 39.5959 52.0429 39.558C52.0557 39.52 52.0594 39.4797 52.0536 39.4401L52.0549 35.5337ZM36.1097 37.8352C36.1261 37.5661 36.0743 37.2972 35.9589 37.0526C35.8435 36.8079 35.6682 36.5952 35.4486 36.4333C34.983 36.1254 34.4342 35.9612 33.8728 35.9616C33.6879 35.9346 33.5063 35.8885 33.3312 35.8241C33.1874 35.7727 33.0613 35.6828 32.9671 35.5644C32.9056 35.5078 32.8577 35.4386 32.8266 35.3617C32.7955 35.2849 32.7821 35.2022 32.7873 35.1196C32.7991 34.9172 32.8805 34.7247 33.0182 34.5736C33.1306 34.4661 33.2655 34.3839 33.4134 34.3325C33.5613 34.2811 33.7188 34.2618 33.8751 34.2759C34.2166 34.2787 34.543 34.4142 34.783 34.6528C34.8365 34.7094 34.9093 34.7449 34.9876 34.7524C35.0659 34.7599 35.1443 34.7389 35.2079 34.6934L35.5328 34.4611C35.5686 34.4428 35.5992 34.416 35.6218 34.3831C35.6444 34.3503 35.6583 34.3124 35.6622 34.2729C35.6661 34.2335 35.6599 34.1937 35.6441 34.1571C35.6284 34.1206 35.6036 34.0886 35.572 34.0639C35.3798 33.8495 35.1495 33.6712 34.8923 33.5377C34.5699 33.4028 34.2229 33.3336 33.8724 33.3343C33.5868 33.3179 33.3009 33.36 33.0328 33.458C32.7647 33.5559 32.5203 33.7076 32.3152 33.9033C32.1492 34.0635 32.0171 34.2542 31.9263 34.4645C31.8356 34.6749 31.788 34.9007 31.7863 35.1292C31.8051 36.2014 32.5015 36.7973 33.8755 36.917C34.0772 36.9361 34.277 36.9716 34.4727 37.023C34.6353 37.077 34.7814 37.1701 34.8976 37.2939C35.0186 37.4498 35.0798 37.6425 35.0704 37.8382C35.0735 37.9886 35.0438 38.1379 34.9834 38.2762C34.923 38.4144 34.8333 38.5384 34.7202 38.6399C34.6071 38.7413 34.4732 38.818 34.3276 38.8646C34.1819 38.9113 34.0278 38.9269 33.8755 38.9105C33.5803 38.9149 33.2926 38.8192 33.061 38.6396C32.8466 38.4793 32.654 38.2927 32.488 38.0844C32.4702 38.0514 32.4453 38.0227 32.4149 38.0002C32.3845 37.9778 32.3494 37.9622 32.3122 37.9547C32.2749 37.9471 32.2364 37.9477 32.1995 37.9565C32.1625 37.9652 32.128 37.9819 32.0983 38.0053L31.7854 38.2242C31.7502 38.2444 31.7197 38.2716 31.6959 38.304C31.6721 38.3365 31.6555 38.3735 31.6472 38.4127C31.6389 38.4518 31.639 38.4923 31.6476 38.5314C31.6563 38.5704 31.6732 38.6073 31.6972 38.6396C31.8992 38.9529 32.1626 39.2237 32.4721 39.4362C32.8805 39.7203 33.3702 39.8697 33.8707 39.8628C34.1726 39.8774 34.4745 39.8324 34.7584 39.7305C35.0423 39.6285 35.3025 39.4716 35.5235 39.2692C35.7163 39.0825 35.8678 38.8588 35.9687 38.6121C36.0695 38.3654 36.1175 38.1009 36.1097 37.8352ZM19.2654 35.9954C19.272 36.0356 19.2689 36.0768 19.2563 36.1155C19.2436 36.1543 19.2219 36.1896 19.1928 36.2187C19.1637 36.2477 19.1281 36.2696 19.0888 36.2826C19.0495 36.2956 19.0076 36.2993 18.9666 36.2935H17.1692C17.1282 36.2989 17.0865 36.2948 17.0475 36.2816C17.0084 36.2684 16.973 36.2465 16.944 36.2176C16.915 36.1887 16.8933 36.1536 16.8805 36.115C16.8677 36.0765 16.8642 36.0355 16.8703 35.9954V35.6683C16.8648 35.3531 16.976 35.0467 17.1833 34.8059C17.2958 34.6857 17.4326 34.5896 17.5849 34.524C17.7372 34.4583 17.9017 34.4244 18.0681 34.4244C18.2345 34.4244 18.399 34.4583 18.5513 34.524C18.7036 34.5896 18.8404 34.6857 18.9529 34.8059C19.1601 35.0467 19.2713 35.3531 19.2659 35.6683L19.2654 35.9954ZM20.3043 35.6683C20.308 35.0971 20.0902 34.546 19.6952 34.1266C19.4869 33.9103 19.2341 33.74 18.9536 33.6271C18.6731 33.5143 18.3713 33.4614 18.0683 33.4719C17.7678 33.4648 17.4691 33.5194 17.1913 33.6321C16.9136 33.7449 16.6628 33.9133 16.4551 34.1266C16.252 34.33 16.0923 34.5711 15.9852 34.8358C15.8782 35.1005 15.8261 35.3835 15.8319 35.6683V37.8106C15.8296 38.0992 15.886 38.3854 15.9977 38.6524C16.1093 38.9194 16.2741 39.1619 16.4823 39.3658C16.6905 39.5696 16.938 39.7307 17.2103 39.8395C17.4826 39.9484 17.7743 40.003 18.0683 40C18.5595 40.0136 19.043 39.8775 19.4523 39.6106C19.6157 39.4984 19.766 39.369 19.9006 39.2246C20.0077 39.0985 20.1075 38.9666 20.1994 38.8296C20.2438 38.7675 20.2673 38.6934 20.2669 38.6175C20.2592 38.5756 20.2428 38.5357 20.2187 38.5003C20.1946 38.465 20.1633 38.4349 20.1267 38.412L19.8279 38.1931C19.8016 38.1688 19.7702 38.1504 19.736 38.1391C19.7017 38.1278 19.6654 38.1239 19.6295 38.1277C19.5885 38.1318 19.5489 38.1447 19.5135 38.1653C19.478 38.1859 19.4475 38.2138 19.4241 38.2471C19.2842 38.4395 19.1187 38.6126 18.9318 38.7616C18.6837 38.9505 18.3774 39.0509 18.0635 39.0463C17.8958 39.0508 17.7293 39.0177 17.5766 38.9496C17.4239 38.8815 17.2889 38.7803 17.1819 38.6534C16.9796 38.4163 16.8702 38.116 16.8734 37.8067V37.4795C16.8671 37.4393 16.8704 37.3982 16.8831 37.3594C16.8958 37.3206 16.9175 37.2853 16.9465 37.2562C16.9755 37.2271 17.0109 37.2049 17.0501 37.1916C17.0893 37.1782 17.1311 37.174 17.1722 37.1792H19.7097C19.7912 37.1888 19.8737 37.1799 19.9512 37.1533C20.0286 37.1267 20.0988 37.0832 20.1564 37.0259C20.2141 36.9686 20.2577 36.8992 20.2838 36.8229C20.31 36.7466 20.3181 36.6654 20.3074 36.5856L20.3043 35.6683ZM4.26531 38.666C4.35611 38.5124 4.31423 38.377 4.13925 38.264L3.8307 38.0451C3.68393 37.9434 3.55082 37.9797 3.42697 38.1511C3.38922 38.2176 3.34711 38.2816 3.30091 38.3428C3.23837 38.4371 3.16437 38.5235 3.08052 38.6002C2.97388 38.7057 2.84581 38.788 2.70463 38.8417C2.56346 38.8953 2.41235 38.9192 2.26114 38.9118C2.09304 38.9159 1.92612 38.883 1.77261 38.8156C1.6191 38.7483 1.48287 38.648 1.37388 38.5223C1.17183 38.286 1.06241 37.9867 1.06535 37.6782V35.5246C1.05937 35.2114 1.16895 34.9067 1.37388 34.6666C1.48487 34.5441 1.62179 34.4469 1.77505 34.3818C1.92831 34.3167 2.09421 34.2853 2.26114 34.2897C2.4304 34.2856 2.59896 34.3123 2.75832 34.3685C2.88092 34.4301 2.99413 34.5083 3.09463 34.6008C3.18265 34.6734 3.25722 34.7603 3.31502 34.8578C3.36486 34.924 3.40287 34.9981 3.42741 35.0768C3.44662 35.1105 3.47328 35.1394 3.50546 35.1616C3.53763 35.1838 3.57448 35.1985 3.61327 35.2048C3.65205 35.2111 3.69177 35.2087 3.72948 35.1979C3.7672 35.187 3.80195 35.168 3.83115 35.1421L4.15555 34.9119C4.19321 34.8871 4.22515 34.8548 4.24929 34.8171C4.27343 34.7793 4.28926 34.7371 4.29572 34.693C4.29689 34.6274 4.27817 34.5629 4.24194 34.5078C4.11583 34.2478 3.93984 34.014 3.72361 33.8194C3.55346 33.6695 3.35628 33.5521 3.14223 33.4732C2.85937 33.375 2.56065 33.3282 2.2607 33.3352C1.96006 33.3271 1.66106 33.3812 1.38312 33.494C1.10519 33.6068 0.854547 33.7757 0.647501 33.9899C0.444403 34.1932 0.28467 34.4344 0.177654 34.6991C0.0706385 34.9638 0.0184883 35.2468 0.024258 35.5316V37.6738C0.0194802 37.9562 0.0719219 38.2368 0.178535 38.4991C0.285149 38.7615 0.443807 39.0005 0.645295 39.2021C0.851372 39.4179 1.10167 39.5885 1.37972 39.7025C1.65777 39.8165 1.95727 39.8715 2.2585 39.8637C2.55515 39.8617 2.84911 39.8082 3.12681 39.7058C3.34383 39.6286 3.54538 39.5147 3.72227 39.3691C3.86809 39.2528 3.99553 39.1158 4.10045 38.9628C4.1631 38.8684 4.21779 38.7691 4.26398 38.666H4.26531Z" fill="#E5E5E5"/>
<path fill-rule="evenodd" clip-rule="evenodd" d="M26.9105 0C11.5683 1.29808 0 6.7284 0 13.1972C0 20.6287 15.2664 26.6899 33.983 26.6899C52.6997 26.6899 67.9661 20.6287 67.9661 13.1972C67.9661 6.72883 56.3977 1.29808 41.0556 0V0.622216C48.9977 1.55684 54.6937 5.07897 54.6937 7.95552C54.6937 11.63 45.3892 14.6272 33.9813 14.6272C22.5734 14.6272 13.2688 11.6304 13.2688 7.95552C13.2688 5.0807 18.9648 1.71996 26.9074 0.785777L26.9105 0Z" fill="#E5E5E5"/>
<path fill-rule="evenodd" clip-rule="evenodd" d="M31.0061 1.59747C24.6481 2.07603 19.8547 4.07768 19.8547 6.46183C19.8547 9.20078 26.1815 11.4348 33.939 11.4348C41.6964 11.4348 48.0227 9.20078 48.0227 6.46183C48.0227 4.07768 43.2285 2.07603 36.8714 1.59747V2.21796C40.163 2.56411 42.5233 3.46931 42.5233 4.52898C42.5233 5.88332 38.6671 6.98798 33.9398 6.98798C29.2126 6.98798 25.3559 5.88332 25.3559 4.52898C25.3559 3.46931 27.7167 2.56238 31.0079 2.21796L31.0061 1.59747Z" fill="#E5E5E5"/>
<path fill-rule="evenodd" clip-rule="evenodd" d="M10.5043 39.4734C10.5086 39.4474 10.5069 39.4209 10.4992 39.3958C10.4915 39.3706 10.4781 39.3475 10.4599 39.3282C10.4418 39.3089 10.4194 39.2939 10.3945 39.2843C10.3696 39.2748 10.3428 39.2709 10.3161 39.273H10.0331C10.0065 39.2709 9.97968 39.2748 9.95477 39.2843C9.92986 39.2939 9.90749 39.3089 9.88936 39.3282C9.87122 39.3475 9.8578 39.3706 9.85011 39.3958C9.84241 39.4209 9.84064 39.4474 9.84494 39.4734V39.6638C9.84123 39.6894 9.84345 39.7156 9.85141 39.7403C9.85937 39.765 9.87288 39.7876 9.89094 39.8065C9.90901 39.8254 9.93117 39.8401 9.95578 39.8495C9.98039 39.8588 10.0068 39.8626 10.0331 39.8606H10.3161C10.3424 39.8626 10.3689 39.8588 10.3935 39.8495C10.4181 39.8401 10.4403 39.8254 10.4583 39.8065C10.4764 39.7876 10.4899 39.765 10.4979 39.7403C10.5058 39.7156 10.508 39.6894 10.5043 39.6638V39.4734Z" fill="#E5E5E5"/>
<path fill-rule="evenodd" clip-rule="evenodd" d="M26.4146 39.466C26.4189 39.4401 26.4172 39.4136 26.4095 39.3884C26.4018 39.3633 26.3884 39.3402 26.3702 39.3209C26.3521 39.3016 26.3297 39.2866 26.3048 39.277C26.2799 39.2675 26.2531 39.2636 26.2264 39.2657H25.9435C25.9168 39.2636 25.89 39.2675 25.8651 39.277C25.8402 39.2866 25.8178 39.3016 25.7997 39.3209C25.7815 39.3402 25.7681 39.3633 25.7604 39.3884C25.7527 39.4136 25.751 39.4401 25.7553 39.466V39.6564C25.7515 39.6821 25.7538 39.7082 25.7617 39.7329C25.7697 39.7576 25.7832 39.7803 25.8013 39.7992C25.8193 39.8181 25.8415 39.8328 25.8661 39.8421C25.8907 39.8515 25.9171 39.8553 25.9435 39.8533H26.2264C26.2528 39.8553 26.2792 39.8515 26.3038 39.8421C26.3284 39.8328 26.3506 39.8181 26.3687 39.7992C26.3867 39.7803 26.4002 39.7576 26.4082 39.7329C26.4161 39.7082 26.4184 39.6821 26.4146 39.6564V39.466Z" fill="#E5E5E5"/>
<path fill-rule="evenodd" clip-rule="evenodd" d="M42.2082 39.4825C42.2125 39.4566 42.2107 39.4301 42.203 39.4049C42.1953 39.3798 42.1819 39.3567 42.1637 39.3373C42.1456 39.318 42.1232 39.3031 42.0983 39.2935C42.0734 39.2839 42.0466 39.2801 42.02 39.2822H41.737C41.7103 39.2801 41.6835 39.2839 41.6586 39.2935C41.6337 39.3031 41.6113 39.318 41.5932 39.3373C41.575 39.3567 41.5616 39.3798 41.5539 39.4049C41.5462 39.4301 41.5445 39.4566 41.5488 39.4825V39.6729C41.5451 39.6986 41.5473 39.7247 41.5552 39.7494C41.5632 39.7741 41.5767 39.7968 41.5948 39.8157C41.6128 39.8346 41.635 39.8492 41.6596 39.8586C41.6842 39.868 41.7107 39.8718 41.737 39.8698H42.02C42.0463 39.8718 42.0727 39.868 42.0973 39.8586C42.1219 39.8492 42.1441 39.8346 42.1622 39.8157C42.1802 39.7968 42.1937 39.7741 42.2017 39.7494C42.2097 39.7247 42.2119 39.6986 42.2082 39.6729V39.4825Z" fill="#E5E5E5"/>
<path fill-rule="evenodd" clip-rule="evenodd" d="M58.0171 39.4691C58.0214 39.4432 58.0196 39.4167 58.012 39.3916C58.0043 39.3665 57.9909 39.3434 57.9728 39.3241C57.9547 39.3048 57.9324 39.2898 57.9076 39.2802C57.8827 39.2706 57.856 39.2667 57.8293 39.2688H57.5463C57.5197 39.2667 57.493 39.2706 57.4681 39.2802C57.4433 39.2898 57.421 39.3048 57.4029 39.3241C57.3848 39.3434 57.3714 39.3665 57.3637 39.3916C57.3561 39.4167 57.3543 39.4432 57.3586 39.4691V39.6595C57.3549 39.6851 57.3571 39.7112 57.365 39.7359C57.373 39.7606 57.3864 39.7832 57.4045 39.8021C57.4225 39.821 57.4446 39.8356 57.4691 39.845C57.4937 39.8544 57.5201 39.8583 57.5463 39.8564H57.8293C57.8556 39.8583 57.882 39.8544 57.9066 39.845C57.9311 39.8356 57.9532 39.821 57.9712 39.8021C57.9893 39.7832 58.0027 39.7606 58.0107 39.7359C58.0186 39.7112 58.0208 39.6851 58.0171 39.6595V39.4691Z" fill="#E5E5E5"/>
</g>
<defs>
<clipPath id="clip0">
<rect width="68" height="40" fill="white"/>
</clipPath>
</defs>
</svg>
