<svg width="72" height="57" viewBox="0 0 72 57" fill="none" xmlns="http://www.w3.org/2000/svg">
<path d="M1.84096 40.5202H0.714636V45.9383H1.86427C3.64309 45.9383 4.85487 45.0599 4.85487 43.2331C4.85487 41.5385 3.74407 40.5202 1.84096 40.5202ZM1.8332 46.568H0V39.8906H1.88757C4.16353 39.8906 5.5695 41.212 5.5695 43.1787C5.5695 45.2853 4.20237 46.568 1.8332 46.568Z" fill="white"/>
<path d="M10.1292 43.6141C10.137 43.5597 10.137 43.4508 10.137 43.4042C10.137 42.658 9.7175 42.1449 8.91742 42.1449C8.00859 42.1449 7.41824 42.8212 7.30949 43.6296L10.1292 43.6141ZM7.26288 44.1971C7.28619 45.3009 7.97752 46.0861 9.0417 46.0861C9.60098 46.0861 10.1292 45.9228 10.5176 45.6818L10.6496 46.2882C10.2146 46.5447 9.64759 46.7079 9.0184 46.7079C7.55029 46.7079 6.56378 45.6507 6.56378 44.166C6.56378 42.6269 7.58913 41.5386 8.96403 41.5386C10.0826 41.5386 10.8205 42.246 10.8205 43.342C10.8205 43.5985 10.7739 43.9095 10.7118 44.1194L7.26288 44.1427V44.1971Z" fill="white"/>
<path d="M14.0441 46.5835H13.4227L11.4108 41.6785H12.1565L13.7645 45.7129L15.3258 41.6785H16.0482L14.0441 46.5835Z" fill="white"/>
<path d="M20.0719 43.6141C20.0797 43.5597 20.0797 43.4508 20.0797 43.4042C20.0797 42.658 19.6603 42.1449 18.8602 42.1449C17.9513 42.1449 17.361 42.8212 17.2522 43.6296L20.0719 43.6141ZM17.2056 44.1971C17.2289 45.3009 17.9203 46.0861 18.9845 46.0861C19.5437 46.0861 20.0719 45.9228 20.4603 45.6818L20.5924 46.2882C20.1574 46.5447 19.5903 46.7079 18.9612 46.7079C17.493 46.7079 16.5065 45.6507 16.5065 44.166C16.5065 42.6269 17.5319 41.5386 18.9068 41.5386C20.0253 41.5386 20.7633 42.246 20.7633 43.342C20.7633 43.5985 20.7167 43.9095 20.6545 44.1194L17.2056 44.1427V44.1971Z" fill="white"/>
<path d="M22.0683 46.568V39.3698L22.7596 39.2299V46.568H22.0683Z" fill="white"/>
<path d="M26.5037 42.1371C25.424 42.1371 24.7171 42.9611 24.7171 44.1116C24.7171 45.3087 25.4395 46.1094 26.5192 46.1094C27.5989 46.1094 28.3058 45.2854 28.3058 44.1349C28.3058 42.9378 27.5834 42.1371 26.5037 42.1371ZM26.4804 46.7079C25.0666 46.7079 24.0258 45.7052 24.0258 44.1349C24.0258 42.5724 25.1132 41.5386 26.5425 41.5386C27.9718 41.5386 28.9894 42.5413 28.9894 44.1116C28.9816 45.6741 27.8941 46.7079 26.4804 46.7079Z" fill="white"/>
<path d="M30.9546 45.7285C31.2653 45.9617 31.7392 46.1094 32.2286 46.1094C33.316 46.1094 33.9996 45.2621 33.9996 44.1117C33.9996 42.9767 33.3549 42.1761 32.3218 42.1761C31.8013 42.1761 31.3197 42.4015 30.9546 42.7202V45.7285ZM32.4305 41.5697C33.8054 41.5697 34.7065 42.6192 34.7065 44.1039C34.7065 45.6197 33.6578 46.708 32.1975 46.708C31.7936 46.708 31.2887 46.5992 30.9546 46.4515V49.0556H30.2633V41.6552L30.9546 41.5153V42.1683C31.2964 41.8573 31.8091 41.5697 32.4305 41.5697Z" fill="white"/>
<path d="M39.2273 43.6141C39.2351 43.5597 39.2351 43.4508 39.2351 43.4042C39.2351 42.658 38.8156 42.1449 38.0155 42.1449C37.1067 42.1449 36.5164 42.8212 36.4076 43.6296L39.2273 43.6141ZM36.361 44.1971C36.3843 45.3009 37.0756 46.0861 38.1398 46.0861C38.6991 46.0861 39.2273 45.9228 39.6157 45.6818L39.7477 46.2882C39.3128 46.5447 38.7457 46.7079 38.1165 46.7079C36.6484 46.7079 35.6619 45.6507 35.6619 44.166C35.6619 42.6269 36.6872 41.5386 38.0621 41.5386C39.1807 41.5386 39.9186 42.246 39.9186 43.342C39.9186 43.5985 39.872 43.9095 39.8099 44.1194L36.361 44.1427V44.1971Z" fill="white"/>
<path d="M41.9072 46.568H41.2159V41.6785L41.9072 41.5386V42.588C42.2412 41.9583 42.7383 41.5386 43.4064 41.5386C43.7404 41.5386 44.0589 41.6319 44.2919 41.764L44.1132 42.3859C43.888 42.2537 43.6239 42.176 43.3365 42.176C42.8005 42.176 42.3033 42.5569 41.8994 43.4353V46.568H41.9072Z" fill="white"/>
<path d="M52.72 40.909C52.1607 40.5669 51.5159 40.3726 50.7858 40.3726C49.2711 40.3726 48.1603 41.4065 48.1603 43.2255C48.1603 44.99 49.2167 46.0861 50.8091 46.0861C51.5626 46.0861 52.2772 45.8296 52.751 45.4875L52.8831 46.1638C52.3704 46.4825 51.6014 46.708 50.7935 46.708C48.7817 46.708 47.4379 45.3632 47.4379 43.2488C47.4379 41.1266 48.8516 39.7585 50.7935 39.7585C51.6402 39.7585 52.4248 40.0072 52.9375 40.3026L52.72 40.909Z" fill="white"/>
<path d="M54.2424 46.568V41.6785L54.9338 41.5386V46.568H54.2424ZM54.592 40.5592C54.2813 40.5592 54.1259 40.326 54.1259 40.0694C54.1259 39.8207 54.2813 39.603 54.592 39.603C54.9027 39.603 55.058 39.8285 55.058 40.0694C55.058 40.3182 54.9027 40.5592 54.592 40.5592Z" fill="white"/>
<path d="M57.2486 46.568H56.5573V41.6785L57.2486 41.5386V42.588C57.5826 41.9583 58.0797 41.5386 58.7478 41.5386C59.0818 41.5386 59.4003 41.6319 59.6333 41.764L59.4546 42.3859C59.2294 42.2537 58.9653 42.176 58.6779 42.176C58.1419 42.176 57.6447 42.5569 57.2408 43.4353V46.568H57.2486Z" fill="white"/>
<path d="M62.5617 46.7079C61.0315 46.7079 60.0683 45.6507 60.0683 44.1349C60.0683 42.6113 61.1247 41.5386 62.5695 41.5386C63.1909 41.5386 63.7269 41.6863 64.1619 41.9583L63.9832 42.5569C63.5948 42.3081 63.1055 42.1605 62.5695 42.1605C61.4665 42.1605 60.7829 42.9533 60.7829 44.1116C60.7829 45.3087 61.5053 46.0861 62.585 46.0861C63.0977 46.0861 63.6104 45.9228 63.9988 45.6818L64.1464 46.2882C63.7114 46.5447 63.1521 46.7079 62.5617 46.7079Z" fill="white"/>
<path d="M65.4203 46.568V39.3698L66.1116 39.2299V46.568H65.4203Z" fill="white"/>
<path d="M70.9509 43.6141C70.9587 43.5597 70.9587 43.4508 70.9587 43.4042C70.9587 42.658 70.5392 42.1449 69.7392 42.1449C68.8303 42.1449 68.24 42.8212 68.1312 43.6296L70.9509 43.6141ZM68.0846 44.1971C68.1079 45.3009 68.7993 46.0861 69.8635 46.0861C70.4227 46.0861 70.9509 45.9228 71.3393 45.6818L71.4714 46.2882C71.0364 46.5447 70.4693 46.7079 69.8401 46.7079C68.372 46.7079 67.3855 45.6507 67.3855 44.166C67.3855 42.6269 68.4109 41.5386 69.7858 41.5386C70.9043 41.5386 71.6423 42.246 71.6423 43.342C71.6423 43.5985 71.5957 43.9095 71.5335 44.1194L68.0846 44.1427V44.1971Z" fill="white"/>
<path d="M52.2616 28.1449C52.6578 26.6757 52.5879 24.8956 52.0364 22.8978C52.9374 21.5452 53.6909 20.1615 54.2657 18.8012C55.5085 22.3148 55.3765 25.4242 53.5821 27.2198C53.2093 27.6007 52.7665 27.9039 52.2616 28.1449ZM50.5372 30.267C50.1565 30.6479 49.706 30.9589 49.2089 31.1921C49.372 30.578 49.4574 29.9017 49.4574 29.1865C50.1798 29.1865 50.8479 29.101 51.4693 28.9378C51.2363 29.4353 50.9256 29.8861 50.5372 30.267ZM47.4922 33.322C45.8532 34.9622 43.0568 35.2654 39.6234 34.1771C39.4448 34.1227 39.2661 34.0605 39.0875 33.9983C40.4468 33.4231 41.8217 32.669 43.1733 31.7673C44.3307 32.086 45.4104 32.2415 46.4047 32.2415C47.1271 32.2415 47.8029 32.156 48.4243 31.9928C48.1835 32.4903 47.8728 32.9411 47.4922 33.322ZM33.518 34.8223C31.8246 34.8223 30.3798 34.3403 29.3622 33.322C28.9738 32.9333 28.6709 32.4903 28.4378 31.9928C29.0593 32.156 29.7273 32.2415 30.4575 32.2415C31.4517 32.2415 32.5315 32.086 33.6889 31.7673C35.0404 32.6768 36.4231 33.4231 37.7825 34.0061C36.26 34.5424 34.8152 34.8223 33.518 34.8223ZM26.3172 30.267C25.9288 29.8784 25.6259 29.4353 25.3851 28.9378C25.9987 29.101 26.6745 29.1865 27.3969 29.1865C27.3969 29.9095 27.4824 30.578 27.6455 31.1999C27.1484 30.9667 26.6978 30.6557 26.3172 30.267ZM23.2645 27.2121C21.4701 25.4164 21.3458 22.307 22.5809 18.7934C23.1557 20.1538 23.9092 21.5297 24.8103 22.89C24.2665 24.8878 24.1966 26.6757 24.585 28.1371C24.0956 27.9117 23.6529 27.6007 23.2645 27.2121ZM22.41 16.9589C21.3225 13.523 21.6255 10.7246 23.2645 9.08437C23.6451 8.70347 24.0956 8.39253 24.5928 8.15933C24.1966 9.62851 24.2665 11.4086 24.818 13.4064C23.917 14.759 23.1635 16.1349 22.5887 17.4953C22.5265 17.3087 22.4644 17.1299 22.41 16.9589ZM26.3172 6.0294C26.6978 5.6485 27.1484 5.33756 27.6455 5.10436C27.4824 5.71846 27.3969 6.39475 27.3969 7.11768C26.6745 7.11768 26.0065 7.20319 25.3929 7.36643C25.6259 6.85339 25.9366 6.4103 26.3172 6.0294ZM29.37 2.97443C30.3642 1.97943 31.778 1.47415 33.5102 1.47415C34.6365 1.47415 35.8871 1.68403 37.2387 2.11157C37.4174 2.16599 37.596 2.22818 37.7747 2.29036C36.4153 2.8656 35.0404 3.61963 33.6889 4.52135C31.6925 3.97721 29.9059 3.90724 28.4456 4.29592C28.6786 3.79842 28.9816 3.35533 29.37 2.97443ZM39.6234 2.11935C40.975 1.69181 42.2334 1.48192 43.352 1.48192C45.0764 1.48192 46.4979 1.9872 47.4922 2.9822C47.8806 3.37088 48.1835 3.81396 48.4166 4.31146C46.9485 3.91502 45.1696 3.98498 43.1733 4.53689C41.8217 3.63517 40.4468 2.88115 39.0875 2.30591C39.2661 2.23595 39.4448 2.17376 39.6234 2.11935ZM50.5372 6.0294C50.9256 6.41807 51.2285 6.86116 51.4615 7.35866C50.8479 7.19542 50.1721 7.10991 49.4497 7.10991C49.4497 6.38698 49.3642 5.71846 49.2011 5.09658C49.7138 5.33756 50.1565 5.6485 50.5372 6.0294ZM51.8499 22.2526C51.4227 20.9078 50.809 19.5241 50.0323 18.1482C50.809 16.7723 51.4227 15.3964 51.8499 14.0438C51.8577 14.0283 51.8577 14.0127 51.8655 14.005C52.7743 15.4042 53.4967 16.8034 54.0327 18.1482C53.4967 19.493 52.7743 20.8923 51.8655 22.2915C51.8577 22.2759 51.8577 22.2682 51.8499 22.2526ZM49.0069 26.0227C48.9448 25.7895 48.8749 25.5486 48.7972 25.3076C48.4554 24.2193 47.9816 23.1077 47.4067 21.9961C48.2923 20.8923 49.0768 19.7651 49.7526 18.6302C50.5449 20.0605 51.1431 21.4675 51.5237 22.8045C50.7935 23.885 49.9468 24.9655 49.0069 26.0227ZM46.8552 28.8756C47.6009 29.0466 48.3156 29.1477 48.9836 29.1788C48.9836 29.995 48.8671 30.749 48.6418 31.4253C47.2902 31.8839 45.6046 31.8839 43.686 31.4097C44.7735 30.6557 45.8299 29.8084 46.8552 28.8756ZM42.6684 31.1299C41.4333 30.7412 40.1672 30.1815 38.901 29.4819C40.0351 28.8056 41.1615 28.0205 42.2645 27.1343C43.3753 27.7096 44.4861 28.1838 45.5736 28.5258C45.8144 28.6035 46.0552 28.6735 46.296 28.7357C45.2395 29.6763 44.1676 30.5158 43.0801 31.2543C42.948 31.2076 42.8082 31.1688 42.6684 31.1299ZM34.3258 31.5808C35.6696 31.1532 37.0523 30.5391 38.4272 29.7618C39.8021 30.5391 41.177 31.1532 42.5286 31.5808C42.5441 31.5885 42.5519 31.5885 42.5674 31.5963C41.1692 32.498 39.7788 33.2287 38.435 33.7573C37.0601 33.2132 35.6619 32.4903 34.287 31.5963C34.3025 31.5885 34.3103 31.5885 34.3258 31.5808ZM30.5584 28.7357C30.7992 28.6735 31.0323 28.6035 31.2808 28.5258C32.3683 28.1838 33.4791 27.7096 34.5899 27.1343C35.6929 28.0205 36.8193 28.8056 37.9534 29.4819C36.5241 30.2748 35.1181 30.8734 33.7821 31.2543C32.679 30.5158 31.5993 29.6685 30.5584 28.7357ZM29.9992 28.8756C31.0245 29.8084 32.0887 30.6635 33.1684 31.4175C32.2207 31.6507 31.3119 31.7673 30.4652 31.7673C29.6496 31.7673 28.8884 31.6507 28.2048 31.4253C27.9795 30.749 27.863 29.995 27.863 29.1788C28.5388 29.1477 29.2534 29.0388 29.9992 28.8756ZM27.1018 18.6302C27.7776 19.7651 28.5621 20.8923 29.4476 21.9961C28.8728 23.1077 28.399 24.2193 28.0572 25.3076C27.9795 25.5486 27.9096 25.7895 27.8475 26.0227C26.9153 24.9811 26.0687 23.9006 25.3307 22.8045C25.7191 21.4675 26.3095 20.0605 27.1018 18.6302ZM25.0045 14.0438C25.4317 15.3886 26.0454 16.7723 26.8221 18.1482C26.0454 19.5241 25.4317 20.9 25.0045 22.2526C24.9967 22.2682 24.9967 22.2837 24.9889 22.2992C24.0956 20.9233 23.3655 19.5241 22.8295 18.1482C23.3655 16.8034 24.0879 15.4042 24.9889 14.0127C24.9967 14.0205 25.0045 14.0283 25.0045 14.0438ZM27.8475 10.2737C27.9096 10.5069 27.9795 10.7479 28.0572 10.9889C28.399 12.0772 28.8728 13.1888 29.4476 14.3004C28.5621 15.4042 27.7776 16.5313 27.1018 17.6663C26.4027 16.3992 25.8512 15.1321 25.455 13.8961C25.4084 13.7562 25.3696 13.6163 25.3307 13.4841C26.0687 12.4036 26.9076 11.3231 27.8475 10.2737ZM29.5719 7.81729C29.3234 8.0505 29.0748 8.29148 28.8262 8.54023C28.5777 8.78898 28.3368 9.03773 28.1038 9.28648C27.9873 8.6957 27.9096 8.13601 27.8863 7.59964C28.4223 7.62296 28.9816 7.70069 29.5719 7.81729ZM34.186 5.16654C35.4211 5.55522 36.6872 6.11491 37.9534 6.81452C36.8193 7.49081 35.6929 8.27593 34.5899 9.1621C33.4791 8.58687 32.3683 8.11269 31.2808 7.77065C31.04 7.69292 30.7992 7.62296 30.5662 7.56077C31.6071 6.62795 32.6868 5.78842 33.7743 5.04994C33.9063 5.08881 34.0462 5.12768 34.186 5.16654ZM42.5286 4.71568C41.1848 5.14322 39.8021 5.75733 38.4272 6.53467C37.0523 5.75733 35.6774 5.14322 34.3258 4.71568C34.3103 4.70791 34.2947 4.70791 34.2792 4.70014C35.6541 3.80619 37.0523 3.08326 38.4194 2.53912C39.7943 3.08326 41.1848 3.80619 42.5597 4.70014C42.5597 4.70791 42.5441 4.70791 42.5286 4.71568ZM46.296 7.56077C46.0629 7.62296 45.8221 7.69292 45.5813 7.77065C44.4938 8.11269 43.383 8.58687 42.2722 9.1621C41.1692 8.27593 40.0429 7.49081 38.9088 6.81452C40.1749 6.11491 41.4411 5.56299 42.6762 5.16654C42.816 5.1199 42.9558 5.08104 43.0956 5.04217C44.1831 5.78842 45.2551 6.62795 46.296 7.56077ZM46.8552 7.42085C45.8299 6.48803 44.7657 5.64073 43.6938 4.8867C44.657 4.6535 45.5658 4.52912 46.4047 4.52912C47.2281 4.52912 47.9816 4.64572 48.6496 4.87115C48.8749 5.54744 48.9914 6.30147 48.9914 7.11768C48.3156 7.14878 47.6009 7.24983 46.8552 7.42085ZM48.7583 9.29425C48.5175 9.0455 48.2767 8.78898 48.0282 8.54023C47.7796 8.29148 47.531 8.0505 47.2825 7.81729C47.8728 7.70069 48.4399 7.62296 48.9758 7.59964C48.9448 8.14378 48.8749 8.70347 48.7583 9.29425ZM47.4067 14.3081C47.9816 13.1965 48.4554 12.0849 48.7972 10.9966C48.8749 10.7557 48.9448 10.5147 49.0069 10.2815C49.9468 11.3387 50.7857 12.4192 51.5237 13.4997C51.1353 14.8367 50.5449 16.2437 49.7526 17.674C49.0768 16.5313 48.2923 15.4042 47.4067 14.3081ZM44.9677 18.1482C45.8066 17.0366 46.5368 15.9017 47.1582 14.7668C48.0437 15.8861 48.8205 17.0211 49.473 18.1482C48.8205 19.2754 48.0437 20.4103 47.1582 21.5297C46.5445 20.3948 45.8066 19.2598 44.9677 18.1482ZM38.4272 24.6935C39.538 25.533 40.6721 26.2637 41.8062 26.8856C40.6876 27.7718 39.5535 28.5491 38.4194 29.2021C37.2776 28.5413 36.1435 27.764 35.0404 26.8856C36.1823 26.2715 37.3164 25.533 38.4272 24.6935ZM31.8867 18.1482C31.0478 19.2598 30.3176 20.3948 29.6962 21.5375C28.8185 20.4258 28.0417 19.2909 27.3814 18.1482C28.0339 17.0211 28.8107 15.8861 29.6962 14.759C30.3176 15.9017 31.0478 17.0366 31.8867 18.1482ZM38.4272 11.603C37.3164 10.7634 36.1823 10.0327 35.0404 9.41085C36.1512 8.53245 37.2853 7.75511 38.4272 7.09436C39.5691 7.75511 40.7032 8.53245 41.8139 9.41085C40.6721 10.025 39.538 10.7634 38.4272 11.603ZM44.3695 18.1482C43.5384 19.221 42.614 20.2859 41.5887 21.312C40.5633 22.3381 39.4992 23.2709 38.4272 24.0949C37.3397 23.2554 36.2833 22.3226 35.2657 21.312C34.2481 20.2937 33.316 19.2365 32.4848 18.1482C33.316 17.0755 34.2404 16.0105 35.2657 14.9844C36.2833 13.9661 37.3397 13.0333 38.4272 12.2015C39.5147 13.0411 40.5711 13.9739 41.5887 14.9844C42.614 16.0105 43.5462 17.0755 44.3695 18.1482ZM42.6684 9.48859C43.6938 8.96777 44.7191 8.54023 45.7211 8.22151C46.0629 8.11269 46.3892 8.0194 46.7154 7.94167C47.0417 8.24483 47.3679 8.55577 47.6864 8.87449C48.0049 9.1932 48.3233 9.51968 48.6263 9.85394C48.3078 11.1443 47.7874 12.5047 47.0805 13.9039C46.428 13.1188 45.7211 12.3414 44.9754 11.5952C44.2297 10.8489 43.4607 10.1416 42.6684 9.48859ZM44.6414 11.9295C45.4337 12.7223 46.1639 13.5386 46.8397 14.3625C46.2338 15.4897 45.5114 16.6246 44.6725 17.7596C43.8413 16.6946 42.9247 15.6529 41.9305 14.6502C40.9362 13.6552 39.8875 12.7301 38.8234 11.9061C39.9419 11.0744 41.076 10.3437 42.2179 9.73734C43.0413 10.4136 43.8569 11.1443 44.6414 11.9295ZM29.7739 13.9039C29.2534 12.8778 28.8262 11.8517 28.5077 10.8489C28.399 10.5069 28.3058 10.1804 28.2281 9.85394C28.531 9.52746 28.8418 9.20097 29.1602 8.88226C29.4787 8.56355 29.805 8.25261 30.1312 7.94944C30.4575 8.02718 30.7915 8.12046 31.1255 8.22929C32.1275 8.548 33.1529 8.97554 34.1782 9.49636C33.3937 10.1493 32.6169 10.8567 31.8712 11.603C31.1332 12.3414 30.4264 13.111 29.7739 13.9039ZM32.213 11.9295C32.9975 11.1443 33.8131 10.4059 34.6365 9.72957C35.7784 10.3437 36.9125 11.0666 38.031 11.8984C36.9669 12.7301 35.926 13.6474 34.9239 14.6424C33.9297 15.6374 33.0053 16.6868 32.1819 17.7518C31.3507 16.6324 30.6206 15.4975 30.0147 14.3548C30.6905 13.5386 31.4284 12.7223 32.213 11.9295ZM32.213 24.367C31.4284 23.5819 30.6905 22.7657 30.0147 21.9417C30.6206 20.8145 31.343 19.6796 32.1897 18.5447C33.0208 19.6096 33.9374 20.6513 34.9317 21.6541C35.926 22.6491 36.9669 23.5741 38.031 24.3981C36.9047 25.2376 35.7628 25.9683 34.6365 26.5747C33.8131 25.8828 33.0053 25.1521 32.213 24.367ZM29.5797 28.4791C28.9971 28.5958 28.4301 28.6735 27.8863 28.6968C27.9096 28.1527 27.9873 27.5852 28.1038 27.0022C28.3446 27.2587 28.5854 27.5075 28.834 27.7562C29.0748 28.005 29.3234 28.2459 29.5797 28.4791ZM29.168 27.422C28.8495 27.1032 28.531 26.7768 28.2281 26.4425C28.5466 25.1521 29.067 23.7918 29.7739 22.3925C30.4264 23.1777 31.1333 23.955 31.879 24.7012C32.6247 25.4475 33.4014 26.1549 34.186 26.8079C32.7956 27.523 31.4284 28.0438 30.139 28.3548C29.8127 28.0516 29.4865 27.7407 29.168 27.422ZM44.6414 24.367C43.8491 25.1599 43.0335 25.8906 42.2101 26.5669C41.0682 25.9528 39.9341 25.2298 38.8156 24.3981C39.8798 23.5663 40.9207 22.6491 41.9227 21.6541C42.917 20.659 43.8413 19.6174 44.6647 18.5447C45.5036 19.6718 46.2338 20.8145 46.8319 21.9417C46.1639 22.7579 45.4337 23.5741 44.6414 24.367ZM48.7583 27.0022C48.8749 27.5852 48.9525 28.1527 48.9758 28.6968C48.4399 28.6657 47.8728 28.5958 47.2825 28.4791C47.531 28.2459 47.7796 28.005 48.0282 27.7562C48.2767 27.5075 48.5175 27.2587 48.7583 27.0022ZM47.6942 27.422C47.3757 27.7407 47.0494 28.0516 46.7232 28.3548C46.3969 28.277 46.0629 28.1838 45.7289 28.0749C44.7269 27.7562 43.7015 27.3287 42.6762 26.8079C43.4607 26.1549 44.2375 25.4475 44.9832 24.7012C45.7289 23.955 46.4358 23.1777 47.0883 22.3925C47.8029 23.784 48.3233 25.1521 48.6341 26.4425C48.3233 26.769 48.0126 27.0955 47.6942 27.422ZM49.4497 7.58409C50.2731 7.58409 51.0265 7.70069 51.6946 7.92612C52.1606 9.3098 52.1451 11.0122 51.6868 12.8856C50.9333 11.8051 50.0789 10.7401 49.1467 9.71402C49.3176 8.96777 49.4186 8.26038 49.4497 7.58409ZM28.2126 4.87115C28.8806 4.64572 29.6341 4.52912 30.4575 4.52912C31.2886 4.52912 32.1974 4.64572 33.1684 4.8867C32.0887 5.64073 31.0323 6.48803 30.0069 7.42085C29.2612 7.24983 28.5543 7.14878 27.8786 7.11768C27.8708 6.2937 27.9873 5.53967 28.2126 4.87115ZM25.1598 7.92612C25.8279 7.70069 26.5813 7.58409 27.4047 7.58409C27.4047 7.58409 27.4047 7.58409 27.4125 7.58409C27.4436 8.26038 27.5445 8.96777 27.7154 9.71402C26.7833 10.7401 25.9366 11.8051 25.1831 12.8778C24.7093 10.9578 24.7015 9.2787 25.1598 7.92612ZM25.1598 28.3703C24.6938 26.9866 24.7093 25.2843 25.1676 23.4109C25.9211 24.4914 26.7755 25.5563 27.7077 26.5824C27.5368 27.3287 27.4358 28.0438 27.4047 28.7124C26.5891 28.7124 25.8356 28.6035 25.1598 28.3703ZM51.6946 28.3703C51.0265 28.5958 50.2731 28.7124 49.4497 28.7124C49.4186 28.0361 49.3176 27.3287 49.1467 26.5824C50.0789 25.5563 50.9333 24.4914 51.6868 23.4109C52.1451 25.2843 52.1606 26.9866 51.6946 28.3703ZM53.5899 9.08437C55.3843 10.88 55.5085 13.9894 54.2735 17.503C53.6987 16.1427 52.9452 14.7668 52.0441 13.4064C52.5879 11.4086 52.6578 9.62074 52.2694 8.15933C52.7665 8.39253 53.2093 8.6957 53.5899 9.08437ZM54.9027 19.1976C54.7939 18.8478 54.6696 18.498 54.5376 18.1482C54.6696 17.7984 54.7939 17.4486 54.9027 17.0988C56.0445 13.4841 55.7027 10.5147 53.9317 8.74234C53.4112 8.22151 52.7821 7.82507 52.0674 7.553C51.7955 6.83784 51.3994 6.21596 50.8789 5.68737C50.3585 5.16654 49.7293 4.7701 49.0147 4.49803C48.7428 3.78287 48.3467 3.15322 47.8262 2.6324C46.0552 0.860048 43.0879 0.518016 39.4758 1.66071C39.1263 1.76954 38.7767 1.89392 38.4272 2.02607C38.0776 1.89392 37.7281 1.76954 37.3785 1.66071C33.7665 0.518016 30.7992 0.867821 29.0282 2.6324C28.5077 3.15322 28.1116 3.78287 27.8397 4.49803C27.1251 4.7701 26.4959 5.16654 25.9754 5.68737C25.455 6.20819 25.0588 6.83784 24.787 7.553C24.0723 7.82507 23.4431 8.22151 22.9227 8.74234C21.1517 10.5147 20.8099 13.4841 21.9517 17.0988C22.0605 17.4486 22.1848 17.7984 22.3168 18.1482C22.1848 18.498 22.0605 18.8478 21.9517 19.1976C20.8099 22.8123 21.1517 25.7818 22.9227 27.5541C23.4431 28.0749 24.0723 28.4714 24.787 28.7434C25.0588 29.4586 25.455 30.0883 25.9754 30.6091C26.4959 31.1299 27.1251 31.5263 27.8397 31.7984C28.1116 32.5136 28.5077 33.1432 29.0282 33.664C30.1157 34.7523 31.6459 35.2965 33.5024 35.2965C34.6754 35.2965 35.9803 35.0788 37.3785 34.6357C37.7281 34.5269 38.0776 34.4025 38.4272 34.2704C38.7767 34.4025 39.1263 34.5269 39.4758 34.6357C40.874 35.0788 42.179 35.2965 43.352 35.2965C45.2085 35.2965 46.7465 34.7446 47.8262 33.664C48.3467 33.1432 48.7428 32.5136 49.0147 31.7984C49.7293 31.5263 50.3507 31.1299 50.8789 30.6091C51.3994 30.0883 51.7955 29.4586 52.0674 28.7434C52.7821 28.4714 53.4035 28.0749 53.9317 27.5541C55.7027 25.7818 56.0445 22.8123 54.9027 19.1976Z" fill="#94C9E3"/>
<path d="M26.4027 56.8523H25.688V49.8562C25.688 49.8562 27.5368 49.8562 27.5679 49.8562C29.2923 49.8562 30.1079 50.6491 30.1079 51.8695C30.1079 52.9189 29.3933 53.5641 28.4845 53.844L30.4186 56.8601H29.5952L27.8009 53.9684L26.4027 54.0616V56.8523ZM27.6533 53.3698C28.5854 53.3387 29.3855 52.8179 29.3855 51.9006C29.3855 50.9834 28.7019 50.5014 27.4824 50.5014C27.4513 50.5014 26.3949 50.5014 26.3949 50.5014V53.4164L27.6533 53.3698Z" fill="#94C9E3"/>
<path d="M31.7702 54.3648C31.7935 55.5153 32.4849 56.3471 33.5646 56.3471C34.1239 56.3471 34.6598 56.176 35.056 55.9195L35.188 56.5569C34.7531 56.829 34.1782 56.9923 33.5413 56.9923C32.0654 56.9923 31.0711 55.8807 31.0711 54.326C31.0711 52.7169 32.1042 51.5742 33.4869 51.5742C34.621 51.5742 35.3589 52.3126 35.3589 53.4631C35.3589 53.7352 35.3123 54.0539 35.2502 54.2793L31.778 54.3026V54.3648H31.7702ZM34.6598 53.7507C34.6676 53.6963 34.6676 53.5797 34.6676 53.5253C34.6676 52.7402 34.2404 52.2038 33.4403 52.2038C32.5237 52.2038 31.9333 52.9112 31.8168 53.7585L34.6598 53.7507Z" fill="#94C9E3"/>
<path d="M38.8311 57C37.2853 57 36.3221 55.8884 36.3221 54.3026C36.3221 52.7013 37.3863 51.5819 38.8389 51.5819C39.4681 51.5819 40.0041 51.7374 40.4391 52.0172L40.2604 52.6469C39.872 52.3903 39.3749 52.2349 38.8389 52.2349C37.7281 52.2349 37.0368 53.0666 37.0368 54.2871C37.0368 55.5386 37.767 56.3626 38.8467 56.3626C39.3593 56.3626 39.8798 56.1916 40.2682 55.935L40.4158 56.5725C39.9885 56.829 39.4293 57 38.8311 57Z" fill="#94C9E3"/>
<path d="M42.0703 50.548C41.7596 50.548 41.5965 50.2993 41.5965 50.035C41.5965 49.7784 41.7518 49.5452 42.0703 49.5452C42.381 49.5452 42.5441 49.7784 42.5441 50.035C42.5364 50.2993 42.381 50.548 42.0703 50.548ZM41.7207 56.8523V51.7218L42.4121 51.5741V56.8523H41.7207Z" fill="#94C9E3"/>
<path d="M46.5135 49.9106C46.2804 49.8018 46.0086 49.7007 45.7289 49.7007C45.1619 49.7007 44.8822 50.0739 44.8822 50.8979V51.7452H46.4902L46.4591 52.3593H44.8822V56.8523H44.1987V52.3826L43.3675 52.3282L43.4141 51.8929L44.1831 51.7141L44.1909 50.9056C44.2142 49.553 44.8434 49.0555 45.7367 49.0555C46.0863 49.0555 46.4436 49.1644 46.6766 49.281C46.6766 49.2965 46.5135 49.9184 46.5135 49.9106Z" fill="#94C9E3"/>
<path d="M47.7563 54.3648C47.7796 55.5153 48.471 56.3471 49.5507 56.3471C50.11 56.3471 50.6459 56.176 51.0421 55.9195L51.1741 56.5569C50.7392 56.829 50.1643 56.9923 49.5274 56.9923C48.0515 56.9923 47.0572 55.8807 47.0572 54.326C47.0572 52.7169 48.0903 51.5742 49.473 51.5742C50.6071 51.5742 51.345 52.3126 51.345 53.4631C51.345 53.7352 51.2984 54.0539 51.2363 54.2793L47.7641 54.3026V54.3648H47.7563ZM50.6382 53.7507C50.6459 53.6963 50.6459 53.5797 50.6459 53.5253C50.6459 52.7402 50.2187 52.2038 49.4186 52.2038C48.502 52.2038 47.9117 52.9112 47.7952 53.7585L50.6382 53.7507Z" fill="#94C9E3"/>
</svg>
