<svg width="47" height="47" viewBox="0 0 47 47" fill="none" xmlns="http://www.w3.org/2000/svg">
<path d="M23.5029 0.489197C36.4779 0.489197 47 11.0524 47 24.0832C47 34.5054 40.2673 43.3473 30.926 46.4699C29.751 46.6873 29.3221 45.9588 29.3221 45.3331C29.3221 44.772 29.3427 43.2886 29.3544 41.3204C35.8904 42.7451 37.271 38.1568 37.271 38.1568C38.3373 35.4308 39.8795 34.7052 39.8795 34.7052C42.0151 33.2423 39.7209 33.2717 39.7209 33.2717C37.3621 33.4391 36.1224 35.7039 36.1224 35.7039C34.0251 39.3083 30.6205 38.2684 29.281 37.6633C29.0695 36.1387 28.4614 35.0988 27.7887 34.5084C33.0058 33.9121 38.493 31.8881 38.493 22.8494C38.493 20.2733 37.5765 18.1671 36.0725 16.5162C36.3163 15.9199 37.1212 13.5199 35.8434 10.274C35.8434 10.274 33.8694 9.63951 29.3809 12.6916C27.5068 12.1687 25.4975 11.9073 23.4971 11.8984C21.5025 11.9102 19.4903 12.1687 17.6133 12.6945C13.1277 9.64245 11.1566 10.2769 11.1566 10.2769C9.87588 13.5258 10.6808 15.9228 10.9216 16.5191C9.41469 18.17 8.507 20.2762 8.507 22.8524C8.507 31.9146 14.0001 33.9091 19.2348 34.4937C18.3917 35.2222 17.6397 36.6616 17.6397 38.8618C17.6397 42.0166 17.6691 44.5605 17.6691 45.3331C17.6691 45.9646 17.2461 46.699 16.0534 46.4669C6.72688 43.3414 0 34.5025 0 24.0832C0 11.0524 10.5221 0.489197 23.5029 0.489197Z" fill="#FFF92E"/>
</svg>
