<svg width="45" height="45" viewBox="0 0 45 45" fill="none" xmlns="http://www.w3.org/2000/svg">
<g clip-path="url(#clip0)">
<path d="M38.4099 6.59008C34.1603 2.34043 28.5102 0 22.5003 0H22.4997C16.4898 0 10.8397 2.34043 6.59008 6.59008C2.34043 10.8397 0 16.4901 0 22.5C0 28.5099 2.34043 34.1603 6.59008 38.4099C10.8397 42.6596 16.4901 45 22.5 45C28.5099 45 34.1603 42.6596 38.4099 38.4099C42.6596 34.1603 45 28.5099 45 22.5C45 16.4901 42.6596 10.8397 38.4099 6.59008ZM39.8797 32.1079H33.2944C34.1768 29.5227 34.7082 26.7236 34.8322 23.8184H42.3183C42.1216 26.8094 41.2598 29.6212 39.8797 32.1079ZM22.5 42.1683C19.6937 40.4984 17.3663 37.91 15.6923 34.7446H29.3077C27.6337 37.91 25.3063 40.4984 22.5 42.1683ZM14.5006 32.1079C13.531 29.5642 12.9433 26.7555 12.8073 23.8184H32.1927C32.0567 26.7555 31.4686 29.5642 30.4991 32.1079H14.5006ZM2.68169 23.8184H10.1678C10.2918 26.7236 10.8232 29.5227 11.7056 32.1079H5.12032C3.74016 29.6212 2.87842 26.8094 2.68169 23.8184ZM5.12032 12.8921H11.7056C10.8232 15.4773 10.2918 18.2764 10.1678 21.1816H2.68169C2.87842 18.1906 3.74016 15.3788 5.12032 12.8921ZM22.5 2.83173C25.3063 4.50165 27.6337 7.08996 29.3077 10.2554H15.6923C17.3663 7.08996 19.6937 4.50165 22.5 2.83173ZM30.4994 12.8921C31.469 15.4358 32.0567 18.2445 32.1927 21.1816H12.8073C12.9433 18.2445 13.5314 15.4358 14.5009 12.8921H30.4994ZM42.3183 21.1816H34.8322C34.7082 18.2764 34.1768 15.4773 33.2944 12.8921H39.8797C41.2598 15.3788 42.1216 18.1906 42.3183 21.1816ZM32.2387 10.2554C30.9856 7.54864 29.3184 5.15671 27.3168 3.22861C31.6612 4.31488 35.4443 6.83453 38.1301 10.2554H32.2387ZM17.6832 3.22861C15.6816 5.15671 14.0144 7.54864 12.7613 10.2554H6.86989C9.5557 6.83453 13.3388 4.31488 17.6832 3.22861ZM12.7613 34.7446C14.0144 37.4514 15.6816 39.8433 17.6832 41.7714C13.3388 40.6851 9.5557 38.1655 6.86989 34.7446H12.7613ZM27.3168 41.7714C29.3184 39.8433 30.9856 37.451 32.2387 34.7446H38.1301C35.4443 38.1655 31.6612 40.6851 27.3168 41.7714Z" fill="#FFF92E"/>
</g>
<defs>
<clipPath id="clip0">
<rect width="45" height="45" fill="white"/>
</clipPath>
</defs>
</svg>
