<svg width="115" height="48" viewBox="0 0 115 48" fill="none" xmlns="http://www.w3.org/2000/svg">
<path d="M0 22.6412C2.13348 18.4328 6.15095 16.8387 10.226 15.3212C10.5171 15.2128 10.8145 15.1203 11.16 15.0023C10.9617 13.7653 10.7282 12.5506 10.5778 11.3296C10.2804 8.91614 10.2292 6.50908 10.9553 4.14665C11.9916 0.786326 14.397 -0.565455 17.8323 0.295349C20.6823 1.00631 23.0397 2.61633 25.2851 4.41764C25.8513 4.87036 26.3918 5.35815 26.9516 5.83638C28.0679 4.94688 29.1394 4.04463 30.2621 3.20614C31.8775 2.0042 33.6143 1.00631 35.5495 0.403746C39.503 -0.823697 42.2922 0.776761 43.1974 4.8066C43.8243 7.59624 43.5908 10.3859 43.1238 13.1692C43.0246 13.7526 42.8999 14.3328 42.7879 14.9099C44.1538 15.4487 45.5228 15.9397 46.8502 16.5263C49.1052 17.5242 51.2323 18.7357 52.8028 20.6996C54.7028 23.0748 54.6101 25.4659 52.5661 27.7327C50.5766 29.9421 47.9889 31.211 45.2893 32.2918C44.5184 32.601 43.7251 32.8529 42.8807 33.1526C43.063 34.2652 43.2741 35.3779 43.4245 36.5001C43.7731 39.0666 43.8915 41.6458 43.0182 44.1326C42.692 45.0635 42.1386 45.9562 41.5117 46.7278C40.8432 47.5535 39.8772 47.8628 38.7545 47.9488C35.0953 48.2262 32.3253 46.3643 29.5936 44.3717C28.714 43.7309 27.908 42.9944 27.1243 42.3504C25.5794 43.5077 24.076 44.6618 22.5375 45.7649C21.9489 46.1858 21.2676 46.4791 20.6471 46.8585C18.7407 48.0222 16.6264 48.0572 14.5121 47.8851C13.4566 47.799 12.6825 47.0434 12.0716 46.2049C10.9937 44.7224 10.6226 43.004 10.5011 41.225C10.3188 38.5374 10.629 35.8848 11.2559 33.2163C10.1652 32.8082 9.0361 32.4894 8.00615 31.9729C6.33647 31.1376 4.68918 30.2418 3.11546 29.2439C1.68887 28.3352 0.713292 26.9803 0 25.45C0 24.5126 0 23.5785 0 22.6412ZM27.0155 32.8911C28.4805 32.8178 29.9647 32.77 31.4456 32.6425C31.7687 32.6138 32.1941 32.3746 32.354 32.1068C33.8446 29.585 35.2968 27.0409 36.7298 24.4871C36.8513 24.2703 36.8577 23.8686 36.7362 23.655C35.2776 21.0854 33.7966 18.5285 32.2805 15.9907C32.1269 15.7356 31.7175 15.4933 31.4233 15.4901C28.5061 15.4519 25.589 15.4487 22.6718 15.4933C22.3328 15.4997 21.8626 15.7739 21.6898 16.064C20.1897 18.5827 18.7375 21.1268 17.3013 23.6805C17.1798 23.8973 17.1766 24.3022 17.2981 24.519C18.7567 27.0887 20.2377 29.6456 21.7506 32.1865C21.8914 32.4225 22.2656 32.6297 22.5439 32.652C24.0216 32.7668 25.5058 32.8178 27.0155 32.8911ZM42.289 30.7009C42.9511 30.4681 43.642 30.2513 44.3169 29.9835C46.5783 29.094 48.7726 28.0706 50.4966 26.3012C52.0767 24.6848 52.0671 23.384 50.4582 21.8027C48.152 19.5359 45.2221 18.4169 42.2602 17.4413C41.4157 19.622 40.5905 21.7389 39.7812 23.8623C39.7269 24.0089 39.7812 24.2225 39.842 24.3819C40.6385 26.4606 41.4477 28.5329 42.289 30.7009ZM28.8484 7.56436C30.2973 9.34655 31.7015 11.0809 33.1249 12.7993C33.2689 12.9747 33.5375 13.1022 33.7678 13.1405C35.0761 13.3636 36.3939 13.539 37.7021 13.759C38.585 13.9088 39.4614 14.1001 40.3378 14.2754C40.9551 11.7664 41.211 9.31466 40.9935 6.84065C40.9072 5.87782 40.6129 4.91181 40.277 3.99362C39.8868 2.92877 39.0072 2.37403 37.8781 2.52387C36.9377 2.64821 35.9813 2.88414 35.1081 3.24759C32.7187 4.2423 30.7451 5.86507 28.8484 7.56436ZM11.8349 30.7327C12.2155 29.6233 12.5546 28.5648 12.9416 27.5255C13.3638 26.3841 14.1859 25.2587 14.1763 24.1301C14.1699 22.9728 13.351 21.825 12.9224 20.6645C12.5322 19.6092 12.1835 18.5348 11.8061 17.4381C9.02971 18.3212 6.41004 19.3765 4.19019 21.2129C1.78803 23.1991 1.75924 24.8219 4.09423 26.84C6.31728 28.7625 9.00732 29.805 11.8349 30.7327ZM13.6997 33.956C13.0024 36.1494 12.7369 40.2112 13.1655 42.4492C13.7189 45.3632 15.1615 46.2304 17.9667 45.2803C20.7878 44.3239 23.0429 42.4907 25.1667 40.5874C23.7178 38.802 22.3104 37.0644 20.8934 35.3365C20.7718 35.1866 20.5831 35.0272 20.4072 34.9985C18.1778 34.6382 15.9451 34.3003 13.6997 33.956ZM28.8963 40.5714C29.4625 41.0496 30.0574 41.5948 30.694 42.0858C32.5716 43.5364 34.5099 44.9009 36.8801 45.4366C39.0648 45.9339 40.1235 45.2931 40.712 43.1538C41.2686 41.1389 41.1918 39.0921 40.9455 37.0485C40.8144 35.9805 40.5969 34.9188 40.4274 33.9241C38.0956 34.2844 35.8885 34.6223 33.6847 34.9794C33.5024 35.0081 33.2976 35.1356 33.1825 35.2791C31.7527 37.0294 30.3357 38.7892 28.8963 40.5714ZM25.1444 7.55161C24.3287 6.88528 23.5291 6.17751 22.6686 5.54625C20.8134 4.1881 18.8911 2.94471 16.5465 2.58126C15.1039 2.35809 14.1027 2.81081 13.6325 4.19128C13.2551 5.30395 13.0408 6.5027 12.9512 7.67595C12.7817 9.91085 13.1207 12.1107 13.6453 14.2085C15.9355 13.8419 18.1458 13.4943 20.3528 13.1277C20.5351 13.099 20.7399 12.9747 20.8582 12.8312C22.2752 11.1096 23.673 9.36886 25.1444 7.55161ZM23.9961 35.3205C25.0548 36.5352 26.0144 37.6383 27.0379 38.8116C28.0551 37.6287 29.0051 36.5256 30.0414 35.3205C27.9495 35.3205 26.0656 35.3205 23.9961 35.3205ZM23.9929 12.7929C26.0752 12.7929 27.9559 12.7929 29.9935 12.7929C28.9539 11.6038 28.0071 10.523 26.9772 9.34973C25.9792 10.5007 25.0388 11.5878 23.9929 12.7929ZM14.2211 16.7303C14.7392 18.216 15.2094 19.571 15.7212 21.0471C16.7416 19.2809 17.6884 17.639 18.7119 15.8663C17.1638 16.166 15.7468 16.437 14.2211 16.7303ZM38.2907 27.0855C37.2927 28.8262 36.3491 30.4681 35.3096 32.2822C36.8897 31.9729 38.3163 31.6924 39.7908 31.4054C39.2759 29.9166 38.8025 28.552 38.2907 27.0855ZM15.7212 27.1365C15.2222 28.6062 14.7584 29.9708 14.2626 31.431C15.7884 31.7211 17.1734 31.9825 18.7151 32.2758C17.6724 30.4873 16.732 28.8709 15.7212 27.1365ZM39.7525 16.7271C38.2395 16.4338 36.8257 16.1596 35.2904 15.86C36.3203 17.6262 37.2767 19.2649 38.2907 21.0057C38.7897 19.5487 39.2535 18.1937 39.7525 16.7271Z" fill="#E5E5E5"/>
<path d="M80.3557 42.7553C80.3557 38.4162 80.3557 34.1664 80.3557 29.8719C82.1789 29.8719 83.9765 29.7571 85.755 29.9038C87.575 30.0536 88.5442 30.9686 88.6529 32.7955C88.7968 35.2217 88.7553 37.6734 88.5985 40.0996C88.4994 41.6713 87.3735 42.6533 85.7997 42.733C84.0085 42.8255 82.2109 42.7553 80.3557 42.7553ZM83.1673 39.972C83.8262 39.972 84.4211 39.9688 85.0129 39.972C85.5535 39.9752 85.8605 39.6851 85.8669 39.1718C85.8893 37.2812 85.8861 35.3874 85.8733 33.4937C85.8701 32.9708 85.5598 32.6743 85.0417 32.652C84.4275 32.6265 83.8102 32.6456 83.1641 32.6456C83.1673 35.1069 83.1673 37.4853 83.1673 39.972Z" fill="#E5E5E5"/>
<path d="M102.33 37.7562C100.766 37.7562 99.2692 37.7562 97.7306 37.7562C97.7306 38.5023 97.7306 39.1718 97.7306 39.9465C99.5475 39.9465 101.377 39.9465 103.258 39.9465C103.258 40.9189 103.258 41.7893 103.258 42.717C100.501 42.717 97.7498 42.717 94.9351 42.717C94.9351 38.4704 94.9351 34.1983 94.9351 29.8783C97.6891 29.8783 100.44 29.8783 103.248 29.8783C103.248 30.7582 103.248 31.6286 103.248 32.6042C101.441 32.6042 99.6082 32.6042 97.7338 32.6042C97.7338 33.398 97.7338 34.0899 97.7338 34.8933C99.2436 34.8933 100.763 34.8933 102.327 34.8933C102.33 35.8784 102.33 36.7488 102.33 37.7562Z" fill="#E5E5E5"/>
<path d="M113.244 33.991C112.374 33.991 111.494 33.991 110.615 33.991C110.17 32.6265 110.049 32.55 108.695 32.6361C107.976 32.6839 107.707 33.0569 107.704 33.7551C107.701 34.4246 107.889 34.8805 108.638 34.9124C109.185 34.9347 109.732 34.9316 110.279 34.973C111.92 35.0941 112.956 35.9773 113.19 37.5905C113.305 38.4003 113.317 39.2515 113.199 40.0581C112.946 41.7861 111.795 42.7202 110.026 42.7649C109.53 42.7776 109.035 42.7712 108.539 42.768C105.926 42.7617 104.62 41.2664 104.969 38.6234C105.862 38.6234 106.757 38.6234 107.65 38.6234C107.806 39.8477 108.971 40.4981 109.988 39.8509C110.301 39.6532 110.381 38.9709 110.426 38.4991C110.471 38.0241 110.138 37.7658 109.629 37.7467C108.929 37.7212 108.219 37.7116 107.528 37.6064C106.223 37.4056 105.289 36.6755 105.065 35.3492C104.908 34.4151 104.86 33.4267 104.985 32.4926C105.174 31.0611 106.066 30.1334 107.544 29.9612C108.494 29.8528 109.479 29.7795 110.416 29.9134C112.556 30.2258 113.589 31.7753 113.244 33.991Z" fill="#E5E5E5"/>
<path d="M79.1754 42.7394C78.1935 42.7394 77.2883 42.7394 76.4662 42.7394C75.8585 42.2292 76.5494 41.0624 75.4171 40.9604C74.7198 40.8966 73.8881 40.7308 73.3444 41.0273C72.8998 41.2696 72.791 42.1272 72.5255 42.7298C71.6715 42.7298 70.7695 42.7298 69.8163 42.7298C70.4784 39.6691 71.1277 36.6563 71.777 33.6467C72.0137 32.5564 72.276 31.4756 72.4807 30.3788C72.5575 29.9644 72.7206 29.8145 73.1428 29.8241C74.1824 29.8496 75.2251 29.8337 76.3735 29.8337C77.3074 34.1281 78.2383 38.413 79.1754 42.7394ZM75.3179 38.0719C75.0556 36.8923 74.8093 35.7732 74.5598 34.6574C74.5119 34.6605 74.4607 34.6669 74.4127 34.6701C74.1728 35.786 73.9329 36.8986 73.677 38.0719C74.2432 38.0719 74.7262 38.0719 75.3179 38.0719Z" fill="#E5E5E5"/>
<path d="M60.1724 29.8497C61.1 29.8497 61.9573 29.8497 62.9008 29.8497C62.9008 33.2004 62.9008 36.5353 62.9008 39.9434C64.7976 39.9434 66.6113 39.9434 68.4856 39.9434C68.4856 40.9031 68.4856 41.7926 68.4856 42.7267C65.7252 42.7267 62.9744 42.7267 60.1724 42.7267C60.1724 38.4577 60.1724 34.1888 60.1724 29.8497Z" fill="#E5E5E5"/>
<path d="M61.0681 21.5987C61.0681 23.3809 61.0681 25.0642 61.0681 26.8018C60.6938 26.8018 60.374 26.8018 60.0093 26.8018C60.0093 22.6476 60.0093 18.4966 60.0093 14.2883C60.1533 14.2659 60.326 14.2213 60.4955 14.2213C61.9829 14.2149 63.4702 14.2054 64.9576 14.2213C66.8448 14.2436 68.3385 15.5157 68.5593 17.2596C68.8279 19.3861 67.8172 20.9228 65.818 21.4265C65.6197 21.4775 65.4246 21.5349 65.1655 21.6083C66.3426 23.3331 67.5005 25.0196 68.6808 26.7508C67.8524 27.0058 67.3118 26.856 66.8544 26.0972C66.0323 24.7422 65.0856 23.4638 64.2155 22.1375C63.9628 21.7517 63.6942 21.5509 63.208 21.5828C62.5362 21.6306 61.8581 21.5987 61.0681 21.5987ZM61.1225 15.2862C61.1225 17.0875 61.1225 18.8378 61.1225 20.6805C62.613 20.6104 64.0556 20.6454 65.463 20.4414C66.7456 20.2565 67.4973 19.0577 67.4077 17.7315C67.315 16.3924 66.4993 15.3977 65.2135 15.3053C63.8701 15.2128 62.5139 15.2862 61.1225 15.2862Z" fill="#E5E5E5"/>
<path d="M92.5105 26.7603C91.5541 27.0855 91.0935 26.738 90.8312 25.8867C90.6041 25.1566 90.4122 24.2097 89.8716 23.8367C89.3566 23.4797 88.4131 23.7347 87.6582 23.7347C86.2252 23.7315 84.7954 23.7347 83.3336 23.7347C83.0458 24.452 82.7643 25.1439 82.486 25.8389C82.0542 26.9197 82.0542 26.9197 80.7875 26.8017C81.3057 25.5424 81.8175 24.3022 82.3261 23.062C83.4456 20.3298 84.5747 17.6007 85.675 14.8589C85.8638 14.387 86.0877 14.1702 86.6346 14.1957C87.1304 14.2181 87.4215 14.3073 87.6262 14.8142C89.2351 18.7962 90.876 22.7687 92.5105 26.7603ZM89.6029 22.7081C88.621 20.2819 87.671 17.9323 86.6634 15.4455C85.6462 17.9482 84.6963 20.2915 83.7175 22.7081C85.7166 22.7081 87.6038 22.7081 89.6029 22.7081Z" fill="#E5E5E5"/>
<path d="M90.3802 29.8688C91.3174 29.8688 92.1939 29.8688 93.1119 29.8688C93.1119 34.1601 93.1119 38.4131 93.1119 42.7203C92.2131 42.7203 91.3174 42.7203 90.3802 42.7203C90.3802 38.4481 90.3802 34.1951 90.3802 29.8688Z" fill="#E5E5E5"/>
<path d="M79.4633 14.2723C79.4633 14.5624 79.4633 14.8111 79.4633 15.1873C77.1571 15.1873 74.8541 15.1873 72.5223 15.1873C72.5223 16.8132 72.5223 18.3149 72.5223 19.9281C74.7805 19.9281 77.0292 19.9281 79.3162 19.9281C79.3162 20.2915 79.3162 20.5434 79.3162 20.8909C77.0803 20.8909 74.8285 20.8909 72.5319 20.8909C72.5319 22.5615 72.5319 24.1364 72.5319 25.8389C74.8189 25.8389 77.1187 25.8389 79.4569 25.8389C79.4729 26.2151 79.4857 26.467 79.5017 26.789C76.8021 26.789 74.1376 26.789 71.4316 26.789C71.4316 22.6316 71.4316 18.4807 71.4316 14.2755C74.0768 14.2723 76.7253 14.2723 79.4633 14.2723Z" fill="#E5E5E5"/>
<path d="M104.217 16.3128C103.91 16.5072 103.651 16.6762 103.399 16.8356C100.779 14.5561 97.7403 14.521 95.7059 16.7272C93.7772 18.8186 93.8731 22.5265 95.9074 24.5318C97.977 26.5723 100.993 26.4607 103.379 24.2258C103.655 24.3884 103.939 24.5573 104.224 24.7295C103.069 26.6137 100.28 27.4904 97.7403 26.789C95.0406 26.043 93.1886 23.6551 93.1534 20.8814C93.1119 17.5657 94.7144 15.2096 97.6027 14.3361C100.165 13.5614 102.944 14.3743 104.217 16.3128Z" fill="#E5E5E5"/>
<path d="M115 14.2627C115 14.5592 115 14.8111 115 15.1841C113.637 15.1841 112.278 15.1841 110.861 15.1841C110.861 19.1183 110.861 22.9313 110.861 26.7986C110.487 26.7986 110.164 26.7986 109.764 26.7986C109.764 22.9728 109.764 19.1406 109.764 15.216C108.34 15.216 106.997 15.216 105.612 15.216C105.612 14.8525 105.612 14.5815 105.612 14.2627C108.724 14.2627 111.814 14.2627 115 14.2627Z" fill="#E5E5E5"/>
<path d="M27.0251 19.0386C29.8271 19.0482 32.0917 21.3086 32.0821 24.0982C32.0725 26.856 29.7375 29.1642 26.9803 29.1419C24.2007 29.1195 21.9233 26.8273 21.9297 24.0536C21.9329 21.2671 24.2071 19.0322 27.0251 19.0386Z" fill="#E5E5E5"/>
</svg>
