<svg width="165" height="25" viewBox="0 0 165 25" fill="none" xmlns="http://www.w3.org/2000/svg">
<path d="M63.4509 25C62.7028 24.8087 61.9408 24.6721 61.1927 24.4399C60.1813 24.1257 59.2947 23.5929 58.796 22.6093C58.1864 21.4344 58.4635 20.3278 59.5164 19.5218C59.6687 19.3989 59.835 19.2896 60.0012 19.1666C58.3803 17.2814 58.5743 16.1885 60.6662 14.5082C60.1536 13.5246 59.4748 12.6093 59.1977 11.5847C58.4358 8.67484 60.2783 6.09287 63.3816 5.46445C65.0579 5.12292 66.6927 5.28686 68.2166 6.07921C68.5629 6.2568 68.7708 6.24314 69.0617 5.98358C70.0315 5.10926 71.1813 5.01363 72.4559 5.24587C72.4559 6.12019 72.4559 6.98085 72.4559 7.89615C71.7078 7.73221 70.9597 7.40434 70.2393 7.99177C70.8488 9.13932 71.209 10.3552 70.835 11.694C70.267 13.7158 68.4106 15.2186 66.1108 15.4098C65.3073 15.4781 64.5038 15.3961 63.7002 15.4235C63.3954 15.4371 63.0491 15.5191 62.7997 15.6694C62.6196 15.7787 62.4672 16.1065 62.5088 16.2978C62.5365 16.4754 62.8136 16.7076 63.0214 16.7623C63.437 16.8716 63.8803 16.8989 64.3237 16.9262C66.0692 17.0218 67.8287 17.0218 69.5604 17.2267C71.0566 17.4043 72.2896 18.1011 72.6775 19.7131C73.0378 21.2431 72.4559 22.9235 71.0567 23.6885C70.073 24.2213 68.9232 24.4672 67.8425 24.836C67.6763 24.8907 67.4962 24.9317 67.33 24.9727C66.0415 25 64.7393 25 63.4509 25ZM67.136 10.4508C67.1083 10.1229 67.0944 9.8497 67.0529 9.59014C66.9005 8.57921 66.2355 7.95079 65.2242 7.86882C64.1574 7.78686 63.34 8.265 63.1045 9.28959C62.9521 9.97265 62.9383 10.724 63.0491 11.4207C63.2015 12.377 63.9912 12.9098 64.9886 12.9235C65.9307 12.9371 66.6234 12.4863 66.9143 11.5847C67.039 11.2158 67.0806 10.806 67.136 10.4508ZM65.4874 22.541C65.4874 22.5273 65.4874 22.5136 65.4874 22.4863C66.0415 22.459 66.5957 22.4727 67.136 22.377C67.801 22.2541 68.466 22.0628 69.1032 21.8033C69.2972 21.7213 69.4773 21.3251 69.4496 21.0929C69.4357 20.9153 69.0894 20.6557 68.8677 20.642C66.7758 20.4781 64.6977 20.3278 62.6058 20.2322C62.3425 20.2186 61.9131 20.5191 61.8438 20.7513C61.7607 21.0382 61.8715 21.5027 62.0793 21.7213C62.3426 21.9945 62.772 22.1721 63.1738 22.2404C63.9357 22.4043 64.7116 22.459 65.4874 22.541Z" fill="#E5E5E5"/>
<path d="M78.136 0C78.136 2.3224 78.136 4.63115 78.136 7.02186C78.6902 6.68033 79.1474 6.36612 79.6461 6.0929C80.8237 5.46448 82.0844 5.10929 83.4282 5.4235C85.2154 5.84699 86.3375 7.14481 86.3929 9.22131C86.4899 12.6366 86.4345 16.0519 86.4345 19.4672C86.4345 19.6721 86.4345 19.877 86.4345 20.1366C85.1184 20.1366 83.83 20.1366 82.4862 20.1366C82.4723 19.8907 82.4584 19.6585 82.4584 19.4126C82.4584 16.5027 82.4584 13.5792 82.4446 10.6694C82.4446 9.86339 82.4307 9.00273 81.5579 8.60656C80.6851 8.21038 79.8955 8.56557 79.1751 9.07104C78.4685 9.56284 78.0668 10.1229 78.0945 11.0929C78.1915 13.8388 78.1222 16.5984 78.1222 19.3579C78.1222 19.6038 78.1222 19.8497 78.1222 20.1503C76.7922 20.1503 75.5177 20.1503 74.1461 20.1503C74.1461 19.8634 74.1461 19.5902 74.1461 19.3306C74.1461 13.1557 74.1461 6.99453 74.1461 0.819672C74.1461 0.546448 74.1323 0.273224 74.1184 0C75.4622 0 76.7922 0 78.136 0Z" fill="#E5E5E5"/>
<path d="M20.3652 0C20.3652 2.29508 20.3652 4.59016 20.3652 7.02186C20.6007 6.85792 20.7808 6.74863 20.9471 6.62568C22.0554 5.88798 23.2191 5.32787 24.5907 5.31421C26.7103 5.30055 28.2481 6.59836 28.5252 8.67486C28.6083 9.2623 28.636 9.84973 28.636 10.4372C28.6499 13.4016 28.636 16.3525 28.636 19.3169C28.636 19.5628 28.636 19.8087 28.636 20.123C27.306 20.123 26.0315 20.123 24.6599 20.123C24.6599 19.8907 24.6599 19.6448 24.6599 19.3989C24.6599 16.5984 24.6599 13.7978 24.6599 10.9973C24.6599 10.5874 24.6184 10.1776 24.5491 9.78142C24.3274 8.6612 23.5516 8.12842 22.4849 8.53825C21.7645 8.82514 21.1272 9.35792 20.5038 9.84973C20.3375 9.97268 20.3375 10.3415 20.3375 10.6011C20.3237 13.5109 20.3375 16.4344 20.3375 19.3443C20.3375 19.5902 20.3375 19.8361 20.3375 20.1366C18.9937 20.1366 17.7191 20.1366 16.3476 20.1366C16.3476 13.4153 16.3476 6.70765 16.3476 0C17.6914 0 19.0214 0 20.3652 0Z" fill="#E5E5E5"/>
<path d="M117.62 0C116.553 4.53552 115.486 9.05738 114.433 13.5929C113.921 15.7787 113.408 17.9645 112.895 20.1639C112.161 20.1639 111.482 20.1639 110.748 20.1639C109.612 14.7814 108.462 9.42623 107.326 4.05738C107.271 4.05738 107.229 4.04372 107.174 4.04372C106.966 4.93169 106.744 5.81967 106.55 6.70765C105.608 10.9426 104.666 15.1639 103.752 19.4126C103.613 20.041 103.378 20.3142 102.713 20.2186C102.311 20.1639 101.882 20.2049 101.424 20.2049C101.147 18.9617 100.87 17.7459 100.621 16.5301C99.4572 11.1475 98.3073 5.77869 97.1574 0.409836C97.1297 0.273224 97.1297 0.136612 97.1159 0C97.8086 0 98.5013 0 99.194 0C100.302 5.34153 101.411 10.6831 102.519 16.0382C103.128 13.8798 103.613 11.7213 104.112 9.54918C104.832 6.36612 105.539 3.18306 106.259 0C106.952 0 107.645 0 108.338 0C108.836 2.28142 109.349 4.56284 109.848 6.84426C110.513 9.89071 111.164 12.9372 111.856 16.1475C111.953 15.847 112.023 15.6967 112.05 15.5464C112.424 13.8388 112.798 12.1311 113.186 10.4235C113.976 6.95355 114.766 3.46995 115.542 0C116.234 0 116.927 0 117.62 0Z" fill="#E5E5E5"/>
<path d="M14.8237 0C14.8237 1.10656 14.8237 2.22678 14.8237 3.40164C13.0642 3.40164 11.3325 3.40164 9.50378 3.40164C9.50378 9.03005 9.50378 14.5765 9.50378 20.1639C8.06297 20.1639 6.733 20.1639 5.3199 20.1639C5.3199 14.5902 5.3199 9.04372 5.3199 3.4153C3.49118 3.4153 1.74559 3.4153 0 3.4153C0 2.28142 0 1.13388 0 0C4.94584 0 9.87783 0 14.8237 0Z" fill="#E5E5E5"/>
<path d="M140.756 0C140.742 4.00273 140.742 8.00546 140.728 12.0082C140.728 12.0628 140.77 12.1175 140.825 12.2678C142.044 10.7787 143.236 9.3306 144.413 7.89617C144.621 7.65027 144.87 7.43169 145.009 7.14481C145.715 5.72404 146.935 5.68306 148.375 5.9153C147.586 6.88525 146.824 7.81421 146.076 8.72951C145.729 9.153 145.424 9.61749 145.023 10C144.455 10.5328 144.51 10.9973 144.843 11.6667C146.173 14.235 147.419 16.8443 148.694 19.4399C148.791 19.6448 148.888 19.8497 149.04 20.1913C148.292 20.1913 147.627 20.2322 146.99 20.1639C146.824 20.1503 146.644 19.8497 146.533 19.6448C145.48 17.4727 144.441 15.3005 143.388 13.1284C143.291 12.9235 143.18 12.7186 143.042 12.459C142.307 13.347 141.573 14.194 140.894 15.082C140.756 15.2596 140.728 15.5464 140.728 15.7787C140.714 17.0082 140.728 18.2377 140.714 19.4672C140.714 19.6858 140.686 19.9044 140.673 20.1639C139.966 20.1639 139.315 20.1639 138.567 20.1639C138.567 19.8634 138.567 19.5902 138.567 19.3306C138.567 13.1694 138.567 6.99453 138.567 0.833333C138.567 0.560109 138.539 0.286885 138.525 0.0136612C139.273 0 140.021 0 140.756 0Z" fill="#E5E5E5"/>
<path d="M53.2267 5.6557C54.5705 5.6557 55.8312 5.6557 57.1473 5.6557C57.1473 10.4644 57.1473 15.2732 57.1473 20.1366C55.8866 20.1366 54.6121 20.1366 53.2682 20.1366C53.2405 19.7267 53.2267 19.3032 53.199 18.7978C52.7141 19.0983 52.3123 19.3852 51.8829 19.6174C50.733 20.2459 49.5138 20.6557 48.1839 20.4235C46.466 20.1229 45.3299 18.9344 45.0667 17.2131C44.9975 16.7623 44.942 16.3114 44.942 15.8606C44.9282 12.6502 44.942 9.43985 44.942 6.22947C44.942 6.05188 44.9698 5.87428 44.9836 5.6557C46.2997 5.6557 47.5743 5.6557 48.932 5.6557C48.932 5.92892 48.932 6.17483 48.932 6.42073C48.932 9.28958 48.932 12.1584 48.932 15.0273C48.932 15.3005 48.932 15.5737 48.9874 15.847C49.2645 17.2541 50.2065 17.7595 51.5226 17.1311C52.0907 16.8579 52.5894 16.4207 53.0604 15.9972C53.2267 15.847 53.2544 15.5054 53.2544 15.2459C53.2682 12.3087 53.2682 9.37155 53.2682 6.43439C53.2267 6.17483 53.2267 5.94259 53.2267 5.6557Z" fill="#E5E5E5"/>
<path d="M43.238 13.8798C43.2242 15.1366 42.6562 17.1584 41.0353 18.7705C38.4862 21.3115 34.0668 20.9972 31.8778 18.1557C29.6889 15.3142 29.6474 10.5874 31.7947 7.71855C34.2607 4.41254 39.4559 4.49451 41.8249 7.88249C42.7531 9.26227 43.238 10.9699 43.238 13.8798ZM39.3451 12.9098C39.1096 11.8169 38.9572 10.7104 38.6247 9.65844C38.3476 8.78413 37.7242 8.18304 36.6851 8.1967C35.6877 8.21036 35.1058 8.82511 34.801 9.65844C34.039 11.8033 34.039 13.989 34.7872 16.1339C35.0919 17.0082 35.7015 17.6229 36.7128 17.6229C37.7242 17.6229 38.3615 17.0082 38.6247 16.1202C38.9572 15.0819 39.1096 14.0027 39.3451 12.9098Z" fill="#E5E5E5"/>
<path d="M96.5755 17.1175C96.5755 18.0465 96.5894 18.8935 96.5617 19.7268C96.5617 19.8634 96.3677 20.082 96.2292 20.123C95.0239 20.4918 93.8048 20.6421 92.5579 20.2869C90.8262 19.7951 89.6902 18.4017 89.6486 16.5711C89.607 14.276 89.6209 11.9809 89.607 9.68582C89.607 9.43992 89.607 9.19401 89.607 8.89347C88.9975 8.89347 88.4572 8.89347 87.8476 8.89347C87.8476 7.78691 87.8476 6.735 87.8476 5.62844C88.4156 5.62844 88.9698 5.62844 89.5793 5.62844C89.5793 4.42625 89.5793 3.27871 89.5793 2.06287C90.9232 2.06287 92.1977 2.06287 93.5415 2.06287C93.5415 3.22407 93.5415 4.37161 93.5415 5.58746C94.5667 5.58746 95.5226 5.58746 96.534 5.58746C96.534 6.69401 96.534 7.7186 96.534 8.82516C95.5781 8.82516 94.6221 8.82516 93.5554 8.82516C93.5554 9.12571 93.5554 9.37161 93.5554 9.60385C93.5554 11.653 93.5554 13.7022 93.5554 15.7514C93.5554 17.5 94.4975 18.0738 96.1045 17.3361C96.2153 17.2814 96.34 17.2268 96.5755 17.1175Z" fill="#E5E5E5"/>
<path d="M128.44 12.5273C128.37 14.5082 128.218 15.9699 127.608 17.3497C126.625 19.5218 124.907 20.5874 122.538 20.5874C120.169 20.5874 118.382 19.5355 117.481 17.3361C116.317 14.5082 116.317 11.5984 117.44 8.75682C118.395 6.33879 120.377 5.27322 123.258 5.46447C125.489 5.60109 127.345 7.22677 127.982 9.71311C128.246 10.7923 128.343 11.9126 128.44 12.5273ZM126.472 12.9781C126.195 11.7213 126.029 10.4508 125.613 9.27595C125.128 7.92349 124.048 7.18578 122.524 7.18578C121 7.18578 119.961 7.93715 119.448 9.28961C118.506 11.735 118.506 14.235 119.434 16.6803C119.975 18.1284 121.125 18.8661 122.552 18.8388C124.076 18.8115 125.184 18.0601 125.641 16.653C126.029 15.4918 126.195 14.2486 126.472 12.9781Z" fill="#E5E5E5"/>
<path d="M149.47 17.541C150.024 17.1995 150.55 16.8716 151.105 16.5301C151.839 17.8416 152.892 18.6202 154.374 18.8252C156.023 19.0574 157.422 18.2377 157.685 16.8716C157.865 15.9017 157.533 15.1366 156.701 14.6722C155.967 14.2623 155.15 13.9891 154.374 13.6749C153.571 13.347 152.725 13.0738 151.963 12.664C150.62 11.9536 149.982 10.7924 150.052 9.28964C150.107 7.80057 150.814 6.69401 152.144 5.99729C154.554 4.7268 157.824 5.57379 159.403 7.93718C158.946 8.29237 158.489 8.66122 158.004 9.0574C157.727 8.75685 157.477 8.45631 157.2 8.19674C156.133 7.17215 154.859 6.9809 153.487 7.37707C152.67 7.60931 152.144 8.15576 152.06 9.03008C151.977 9.84975 152.254 10.5465 152.989 10.9426C153.764 11.3661 154.61 11.6803 155.441 12.0219C156.078 12.2814 156.743 12.4727 157.366 12.7596C158.752 13.388 159.708 14.3716 159.722 15.9836C159.735 17.7596 159.057 19.1803 157.422 20.0273C154.707 21.4208 151.008 20.2869 149.47 17.541Z" fill="#E5E5E5"/>
<path d="M136.946 5.65573C136.946 6.28415 136.946 6.85792 136.946 7.48633C134.854 7.34972 133.801 8.64753 132.914 10.1912C132.332 11.2158 132 12.2814 132.042 13.4973C132.125 15.4508 132.069 17.4044 132.069 19.3716C132.069 19.6175 132.069 19.8634 132.069 20.1503C131.363 20.1503 130.725 20.1503 130.019 20.1503C130.019 15.4235 130.019 10.6831 130.019 5.90163C130.67 5.90163 131.321 5.90163 132.055 5.90163C132.055 6.81693 132.055 7.73223 132.055 8.64753C133.15 6.76229 134.452 5.34152 136.946 5.65573Z" fill="#E5E5E5"/>
<path d="M165 7.90985C165 9.19401 163.989 10.2186 162.7 10.2323C161.44 10.2459 160.359 9.20767 160.331 7.95084C160.304 6.72133 161.384 5.64209 162.659 5.62843C163.933 5.61477 165 6.65302 165 7.90985ZM163.698 9.19401C164.446 8.79783 164.404 8.11477 164.293 7.47269C164.183 6.84428 163.753 6.42078 163.102 6.28417C162.409 6.14756 161.758 6.27051 161.315 6.88526C160.775 7.63663 160.913 8.74319 161.62 9.28963C162.257 9.78144 163.185 9.72679 163.725 9.18034L163.698 9.19401Z" fill="#E5E5E5"/>
<path d="M163.725 9.18036C163.31 9.24867 163.102 9.04375 162.936 8.70222C162.839 8.4973 162.645 8.31971 162.506 8.14211C162.451 8.16943 162.382 8.19675 162.326 8.22408C162.298 8.51096 162.271 8.78419 162.243 9.09839C161.924 9.24867 161.689 9.24867 161.703 8.78419C161.703 8.12845 161.703 7.47271 161.703 6.73501C162.285 6.73501 162.825 6.68036 163.351 6.76233C163.559 6.78965 163.878 7.0902 163.864 7.26779C163.864 7.60932 163.67 7.95085 163.545 8.29238C163.49 8.27872 163.434 8.26506 163.393 8.23774C163.504 8.56561 163.601 8.89348 163.712 9.20768C163.698 9.19402 163.725 9.18036 163.725 9.18036ZM162.395 6.95359C162.188 7.59566 162.354 7.81424 162.783 7.73227C162.991 7.69129 163.171 7.52736 163.365 7.41807C163.06 7.28145 162.756 7.13118 162.395 6.95359Z" fill="#E5E5E5"/>
</svg>
