<svg width="106" height="106" viewBox="0 0 106 106" fill="none" xmlns="http://www.w3.org/2000/svg">
<path d="M20.1915 75.6805C17.3806 75.1227 14.5053 73.0627 12.7672 70.402C10.4713 66.8615 9.76317 60.7247 11.0721 55.768C12.2522 51.2405 15.2348 47.9145 19.3332 46.5413C21.2215 45.8975 24.6332 45.7688 26.4571 46.2409L27.6802 46.5627L27.7231 50.6826C27.7445 52.9571 27.7231 54.8024 27.6587 54.8024C27.5943 54.8024 27.3154 54.6093 27.015 54.3518C25.9636 53.472 25.1267 53.1502 23.9037 53.1716C22.0369 53.1931 20.7494 54.0514 19.7838 55.9182C18.6037 58.2356 18.4749 62.6129 19.4834 65.3595C20.7709 68.8141 24.2255 69.6295 27.3798 67.2263C27.7231 66.9688 28.002 66.8186 28.0235 66.9044C28.1093 67.1619 27.6158 74.7579 27.5085 74.8866C27.4441 74.951 26.6717 75.187 25.8134 75.423C24.1611 75.8737 21.6721 75.9809 20.1915 75.6805ZM39.7607 75.7449C37.8296 75.4016 36.0486 74.4146 34.3535 72.7409C33.0875 71.4963 32.7441 71.0028 32.0575 69.6081C30.3194 66.0032 29.8045 61.2611 30.6413 56.4117C31.5211 51.3692 34.8684 47.3352 39.1385 46.2194C40.4474 45.8761 43.0223 45.8761 44.3526 46.2194C47.7 47.0777 50.2749 49.5024 51.7555 53.1716C53.5579 57.6992 53.4721 64.8231 51.5624 69.0073C49.9316 72.5692 47.5284 74.7793 44.3741 75.5947C43.4085 75.8307 40.8122 75.9166 39.7607 75.7449ZM42.8506 68.1704C43.43 67.634 43.8162 66.7971 44.2024 65.338C44.5887 63.836 44.653 58.536 44.3097 56.7336C43.7089 53.7081 42.3356 52.4635 40.7263 53.5364C40.1899 53.8797 39.3531 55.5963 39.0526 56.9911C38.6879 58.6004 38.7522 63.7931 39.1599 65.338C39.632 67.2048 40.2972 68.2777 41.1769 68.621C41.5846 68.7927 42.4 68.5781 42.8506 68.1704ZM56.6263 60.8963V45.9405H61.1109C65.7887 45.9405 67.0976 46.0692 68.8571 46.67C72.6765 47.9575 75.5518 51.3048 76.732 55.8538C77.3113 58.0854 77.4616 61.9263 77.0539 64.5441C76.3887 68.9643 74.3931 72.4405 71.6037 74.0927C69.0502 75.5947 67.5053 75.8737 61.3684 75.8737H56.6049V60.8963H56.6263ZM66.4324 68.149C67.2263 67.7198 68.1705 66.4538 68.4494 65.4024C69.2433 62.4842 69.0717 58.3643 68.1061 56.1757C67.4194 54.6737 66.2178 53.6222 65.145 53.6222C64.8016 53.6222 64.8016 53.7081 64.8016 61.1967V68.7712L65.2737 68.6639C65.5312 68.5567 66.0676 68.3421 66.4324 68.149ZM80.6158 60.8963V45.9405H88.1688H95.7219V49.5024V53.0643H92.2672H88.7911V54.9741V56.8838H91.9239H95.0567L95.0352 60.4457L95.0138 64.0077H91.9239H88.834V66.3465V68.6854H92.2672H95.7433V72.2473V75.8093H88.1903H80.6373L80.6158 60.8963ZM11.9518 40.2542C11.0506 37.9797 10.2138 35.8769 10.085 35.555L9.849 34.9757L10.6644 35.0186L11.4798 35.0615L12.5312 37.8081C13.1105 39.3101 13.6255 40.5546 13.6899 40.5546C13.7543 40.5546 14.2907 39.1814 14.913 37.5077C15.5352 35.834 16.0931 34.5251 16.1575 34.5894C16.2219 34.6538 16.7583 36.0486 17.3377 37.6579C17.917 39.2886 18.432 40.6405 18.4535 40.6619C18.4749 40.6834 18.6466 40.3401 18.8182 39.8894C18.9899 39.4388 19.5263 38.1299 19.9984 37.0141L20.8567 34.9757H21.6506C22.2085 34.9757 22.4016 35.0401 22.3373 35.1903C22.2943 35.319 21.4575 37.2931 20.4705 39.589C19.4834 41.885 18.6251 43.9235 18.5607 44.0951C18.432 44.4384 18.432 44.4384 18.2603 44.0951C18.153 43.902 17.681 42.6145 17.166 41.2413C16.6725 39.8465 16.2004 38.6664 16.136 38.5805C16.0288 38.4733 14.913 41.1769 14.0332 43.7089C13.9045 44.0737 13.7543 44.3526 13.7113 44.3526C13.6255 44.3741 12.853 42.5287 11.9518 40.2542ZM58.2571 43.2797C57.6777 42.6575 56.2616 41.1769 55.0814 39.9538L52.9571 37.7437V40.8121V43.8805H52.2705H51.5838V39.0526V34.2247L53.7081 36.4777C54.8668 37.7222 56.3259 39.2457 56.9267 39.868L58.0211 41.0052V38.0012V34.9971H58.7935H59.566V39.6963C59.566 42.2712 59.5016 44.3955 59.4373 44.3955C59.3729 44.3955 58.8365 43.8805 58.2571 43.2797ZM66.2607 40.4473C65.4024 38.2801 64.5656 36.1558 64.3939 35.7482L64.0935 34.9757L64.9089 35.0186L65.7243 35.0615L66.7757 37.8081C67.3551 39.3101 67.8701 40.5546 67.9344 40.5546C67.9988 40.5546 68.5352 39.1814 69.1575 37.5077C69.7798 35.834 70.3377 34.5251 70.402 34.5894C70.4664 34.6538 71.0028 36.0486 71.5822 37.6579C72.1616 39.2886 72.6765 40.6405 72.698 40.6619C72.7194 40.6834 72.8911 40.3401 73.0628 39.8894C73.2344 39.4388 73.7709 38.1299 74.2429 37.0141L75.1012 34.9757H75.8952C76.4531 34.9757 76.6462 35.0401 76.5818 35.1903C76.5389 35.319 75.702 37.2931 74.715 39.589C73.728 41.885 72.8696 43.9235 72.8053 44.0951C72.6765 44.4384 72.6765 44.4384 72.5049 44.0951C72.3976 43.902 71.9255 42.6145 71.4105 41.2413C70.917 39.8465 70.445 38.6664 70.3806 38.5805C70.3162 38.5162 69.7583 39.7822 69.136 41.4129C68.5138 43.0437 67.9773 44.3741 67.9344 44.3741C67.8701 44.3741 67.119 42.6145 66.2607 40.4473ZM37.4219 42.8077C37.0786 42.0352 36.5207 40.8121 36.2203 40.104C35.8984 39.353 35.6194 38.9024 35.5551 39.0311C35.4692 39.2028 34.6968 43.4085 34.6968 43.7518C34.6968 43.8162 34.332 43.8591 33.9028 43.8591H33.1089L33.2377 43.3012C33.302 43.0008 33.7312 40.8765 34.1818 38.6235C34.6324 36.349 35.0401 34.4607 35.083 34.4178C35.1259 34.3749 35.834 35.8125 36.6279 37.6364C37.4219 39.4603 38.13 40.8765 38.2158 40.8121C38.3231 40.6834 40.2543 36.6065 41.0053 34.9328C41.2199 34.4607 41.3486 34.332 41.413 34.5036C41.4559 34.6538 41.8207 36.6065 42.2069 38.8595C42.5931 41.1125 42.9579 43.151 43.0223 43.4299C43.1081 43.902 43.1081 43.902 42.3571 43.902H41.5846L41.1984 41.3915C40.9838 39.9967 40.7907 38.8809 40.7692 38.8809C40.7478 38.8809 40.1899 40.0396 39.5462 41.4558C38.9024 42.872 38.3231 44.0737 38.2587 44.1595C38.13 44.1595 37.7867 43.5801 37.4219 42.8077ZM25.4701 43.8162C22.7879 42.8077 21.6721 39.868 22.981 37.2502C23.732 35.7696 25.2769 34.8684 27.0579 34.8469C28.9891 34.8255 30.5555 35.7911 31.3709 37.4648C31.8644 38.4947 31.8858 40.3401 31.4138 41.3915C31.0275 42.2283 30.0405 43.2154 29.1607 43.6445C28.3668 44.0307 26.3069 44.1166 25.4701 43.8162ZM27.9591 42.636C29.8474 42.121 30.9203 39.7822 30.0834 38.0226C29.6972 37.2073 28.7745 36.4348 27.8947 36.1988C25.9207 35.6623 23.9251 37.2502 23.9251 39.3745C23.9251 40.8336 24.5903 41.8635 25.9207 42.4858C26.736 42.872 27.0794 42.8935 27.9591 42.636ZM89.2203 43.7733C86.6668 42.8291 85.4867 39.6749 86.7956 37.2716C87.3749 36.1988 88.5122 35.2546 89.5636 34.9757C90.5077 34.7182 92.2029 34.8469 92.9968 35.2332C93.8765 35.6623 94.7563 36.5635 95.2069 37.4648C95.7004 38.4733 95.7004 40.3401 95.2498 41.37C94.8636 42.2069 93.8765 43.1939 92.9968 43.6231C92.1385 44.0307 90.1215 44.1166 89.2203 43.7733ZM91.7737 42.636C93.6834 42.0996 94.7348 39.7392 93.8336 37.9583C92.2243 34.7826 87.7397 35.9198 87.7397 39.4818C87.7397 40.855 88.4907 41.9494 89.8211 42.5287C90.5506 42.8506 90.9154 42.872 91.7737 42.636ZM44.7818 39.4388V34.9971H47.2923H49.8028V35.5979V36.1988H47.979H46.1551V37.2502V38.3016H47.8931H49.6312V38.9024V39.5032H47.8931H46.1551V41.0696V42.636H47.979H49.8028V43.2368V43.8376H47.2923H44.7818V39.4388ZM77.998 39.4388V34.9971H78.6846H79.3713V36.7352V38.4733H81.281H83.1907V36.7352V34.9971H83.8773H84.564V39.4388V43.8805H83.8773H83.1907V41.7992V39.6963H81.281H79.3927V41.7777V43.8591H78.7061H78.0194V39.4388H77.998Z" fill="#E5E5E5"/>
</svg>
